<svg width="271" height="80" viewBox="0 0 271 80" fill="none" xmlns="http://www.w3.org/2000/svg">
<g filter="url(#filter0_d_936_2140)">
<rect x="8" width="254.688" height="64.1852" rx="15.0926" fill="#45E871" shape-rendering="crispEdges"/>
<path d="M64.3838 43.0927H61.5838V36.6527L66.3438 23.4927H69.1438L73.9038 36.6527V43.0927H71.1038V38.5567H64.3838V43.0927ZM64.8878 35.7567H70.5998L67.7718 27.9166H67.7158L64.8878 35.7567ZM90.6928 30.2127C90.6928 33.0127 88.4528 35.2527 85.6528 35.2527H81.1728V43.0927H78.3728V23.4927H85.6528C88.4528 23.4927 90.6928 25.7327 90.6928 28.5327V30.2127ZM81.1728 32.4527H85.6528C86.9128 32.4527 87.8928 31.4727 87.8928 30.2127V28.5327C87.8928 27.2727 86.9128 26.2927 85.6528 26.2927H81.1728V32.4527ZM107.482 30.2127C107.482 33.0127 105.242 35.2527 102.442 35.2527H97.9619V43.0927H95.1619V23.4927H102.442C105.242 23.4927 107.482 25.7327 107.482 28.5327V30.2127ZM97.9619 32.4527H102.442C103.702 32.4527 104.682 31.4727 104.682 30.2127V28.5327C104.682 27.2727 103.702 26.2927 102.442 26.2927H97.9619V32.4527ZM114.751 23.4927V40.2927H124.271V43.0927H111.951V23.4927H114.751ZM133.5 43.0927V36.1207L128.74 30.2127V23.4927H131.54V29.2047L134.844 33.3207H134.9L138.26 28.9247V23.4927H141.06V29.8767L136.3 36.1207V43.0927H133.5ZM171.838 23.4927H174.638V43.0927H170.578L165.118 28.1967V43.0927H162.318V23.4927H166.378L171.838 38.3887V23.4927ZM186.387 40.2647C187.619 40.2647 188.627 39.2567 188.627 38.0247V28.5327C188.627 27.2727 187.647 26.2927 186.387 26.2927H184.147C182.887 26.2927 181.907 27.3007 181.907 28.5327V38.0247C181.907 39.2567 182.915 40.2647 184.147 40.2647H186.387ZM179.107 38.0247V28.5327C179.107 25.7327 181.375 23.4927 184.147 23.4927H186.387C189.187 23.4927 191.427 25.7327 191.427 28.5327V38.0247C191.427 40.7967 189.187 43.0927 186.387 43.0927H184.147C181.375 43.0927 179.107 40.7967 179.107 38.0247ZM203.204 28.5327L204.744 37.3527L205.416 29.0927V23.4927H208.216V29.9327L206.536 43.0927H204.296L202.056 34.7207L199.816 43.0927H197.576L195.896 29.9327V23.4927H198.696V29.0927L199.368 37.3527L200.908 28.5327H203.204Z" fill="white"/>
</g>
<defs>
<filter id="filter0_d_936_2140" x="0.453693" y="0" width="269.78" height="79.2779" filterUnits="userSpaceOnUse" color-interpolation-filters="sRGB">
<feFlood flood-opacity="0" result="BackgroundImageFix"/>
<feColorMatrix in="SourceAlpha" type="matrix" values="0 0 0 0 0 0 0 0 0 0 0 0 0 0 0 0 0 0 127 0" result="hardAlpha"/>
<feOffset dy="7.54631"/>
<feGaussianBlur stdDeviation="3.77315"/>
<feComposite in2="hardAlpha" operator="out"/>
<feColorMatrix type="matrix" values="0 0 0 0 0 0 0 0 0 0 0 0 0 0 0 0 0 0 0.25 0"/>
<feBlend mode="normal" in2="BackgroundImageFix" result="effect1_dropShadow_936_2140"/>
<feBlend mode="normal" in="SourceGraphic" in2="effect1_dropShadow_936_2140" result="shape"/>
</filter>
</defs>
</svg>

