<svg width="96" height="31" viewBox="0 0 96 31" fill="none" xmlns="http://www.w3.org/2000/svg">
<g filter="url(#filter0_i_750_1287)">
<mask id="path-1-inside-1_750_1287" fill="white">
<path fill-rule="evenodd" clip-rule="evenodd" d="M91.907 0H3.72096V3H0V27.6667H3.72096V31H91.907V27.6667H96V3H91.907V0Z"/>
</mask>
<path fill-rule="evenodd" clip-rule="evenodd" d="M91.907 0H3.72096V3H0V27.6667H3.72096V31H91.907V27.6667H96V3H91.907V0Z" fill="black" fill-opacity="0.52"/>
<path d="M3.72096 0V-1H2.72096V0H3.72096ZM91.907 0H92.907V-1H91.907V0ZM3.72096 3V4H4.72096V3H3.72096ZM0 3V2H-1V3H0ZM0 27.6667H-1V28.6667H0V27.6667ZM3.72096 27.6667H4.72096V26.6667H3.72096V27.6667ZM3.72096 31H2.72096V32H3.72096V31ZM91.907 31V32H92.907V31H91.907ZM91.907 27.6667V26.6667H90.907V27.6667H91.907ZM96 27.6667V28.6667H97V27.6667H96ZM96 3H97V2H96V3ZM91.907 3H90.907V4H91.907V3ZM3.72096 1H91.907V-1H3.72096V1ZM4.72096 3V0H2.72096V3H4.72096ZM0 4H3.72096V2H0V4ZM1 27.6667V3H-1V27.6667H1ZM3.72096 26.6667H0V28.6667H3.72096V26.6667ZM4.72096 31V27.6667H2.72096V31H4.72096ZM91.907 30H3.72096V32H91.907V30ZM90.907 27.6667V31H92.907V27.6667H90.907ZM96 26.6667H91.907V28.6667H96V26.6667ZM95 3V27.6667H97V3H95ZM91.907 4H96V2H91.907V4ZM90.907 0V3H92.907V0H90.907Z" fill="#45E871" mask="url(#path-1-inside-1_750_1287)"/>
<path d="M26.88 10.8V20.4H32.32V22H25.28V10.8H26.88ZM39.0338 20.384C39.7378 20.384 40.3138 19.808 40.3138 19.104V13.68C40.3138 12.96 39.7538 12.4 39.0338 12.4H37.7538C37.0338 12.4 36.4738 12.976 36.4738 13.68V19.104C36.4738 19.808 37.0498 20.384 37.7538 20.384H39.0338ZM34.8738 19.104V13.68C34.8738 12.08 36.1698 10.8 37.7538 10.8H39.0338C40.6338 10.8 41.9138 12.08 41.9138 13.68V19.104C41.9138 20.688 40.6338 22 39.0338 22H37.7538C36.1698 22 34.8738 20.688 34.8738 19.104ZM47.5075 15.968H51.5075V19.104C51.5075 20.688 50.2275 22 48.6275 22H47.3475C45.7635 22 44.4675 20.688 44.4675 19.104V13.68C44.4675 12.08 45.7635 10.8 47.3475 10.8H48.6275C50.2275 10.8 51.5075 12.08 51.5075 13.68V14.56H49.9075V13.68C49.9075 12.96 49.3475 12.4 48.6275 12.4H47.3475C46.6275 12.4 46.0675 12.976 46.0675 13.68V19.104C46.0675 19.808 46.6435 20.384 47.3475 20.384H48.6275C49.3315 20.384 49.9075 19.808 49.9075 19.104V17.568H47.5075V15.968ZM54.0613 10.8H61.1013V12.4H58.3813V20.4H61.1013V22H54.0613V20.4H56.7812V12.4H54.0613V10.8ZM69.095 10.8H70.695V22H68.375L65.255 13.488V22H63.655V10.8H65.975L69.095 19.312V10.8Z" fill="#45E871"/>
</g>
<defs>
<filter id="filter0_i_750_1287" x="0" y="0" width="97" height="32" filterUnits="userSpaceOnUse" color-interpolation-filters="sRGB">
<feFlood flood-opacity="0" result="BackgroundImageFix"/>
<feBlend mode="normal" in="SourceGraphic" in2="BackgroundImageFix" result="shape"/>
<feColorMatrix in="SourceAlpha" type="matrix" values="0 0 0 0 0 0 0 0 0 0 0 0 0 0 0 0 0 0 127 0" result="hardAlpha"/>
<feOffset dx="1" dy="1"/>
<feGaussianBlur stdDeviation="5"/>
<feComposite in2="hardAlpha" operator="arithmetic" k2="-1" k3="1"/>
<feColorMatrix type="matrix" values="0 0 0 0 0.272508 0 0 0 0 0.908903 0 0 0 0 0.443582 0 0 0 1 0"/>
<feBlend mode="normal" in2="shape" result="effect1_innerShadow_750_1287"/>
</filter>
</defs>
</svg>
