<svg width="226" height="73" viewBox="0 0 226 73" fill="none" xmlns="http://www.w3.org/2000/svg">
<mask id="path-1-inside-1_936_1544" fill="white">
<path fill-rule="evenodd" clip-rule="evenodd" d="M216.364 0H8.75963V7.06457H0V65.1506H8.75963V73H216.364V65.1506H226V7.06457H216.364V0Z"/>
</mask>
<path d="M8.75963 0V-1H7.75963V0H8.75963ZM216.364 0H217.364V-1H216.364V0ZM8.75963 7.06457V8.06457H9.75963V7.06457H8.75963ZM0 7.06457V6.06457H-1V7.06457H0ZM0 65.1506H-1V66.1506H0V65.1506ZM8.75963 65.1506H9.75963V64.1506H8.75963V65.1506ZM8.75963 73H7.75963V74H8.75963V73ZM216.364 73V74H217.364V73H216.364ZM216.364 65.1506V64.1506H215.364V65.1506H216.364ZM226 65.1506V66.1506H227V65.1506H226ZM226 7.06457H227V6.06457H226V7.06457ZM216.364 7.06457H215.364V8.06457H216.364V7.06457ZM8.75963 1H216.364V-1H8.75963V1ZM9.75963 7.06457V0H7.75963V7.06457H9.75963ZM0 8.06457H8.75963V6.06457H0V8.06457ZM1 65.1506V7.06457H-1V65.1506H1ZM8.75963 64.1506H0V66.1506H8.75963V64.1506ZM9.75963 73V65.1506H7.75963V73H9.75963ZM216.364 72H8.75963V74H216.364V72ZM215.364 65.1506V73H217.364V65.1506H215.364ZM226 64.1506H216.364V66.1506H226V64.1506ZM225 7.06457V65.1506H227V7.06457H225ZM216.364 8.06457H226V6.06457H216.364V8.06457ZM215.364 0V7.06457H217.364V0H215.364Z" fill="#45E871" mask="url(#path-1-inside-1_936_1544)"/>
<path d="M69.9293 48H66.9293V41.1L72.0293 27H75.0293L80.1293 41.1V48H77.1293V43.14H69.9293V48ZM70.4693 40.14H76.5893L73.5593 31.74H73.4993L70.4693 40.14ZM98.1176 34.2C98.1176 37.2 95.7176 39.6 92.7176 39.6H87.9176V48H84.9176V27H92.7176C95.7176 27 98.1176 29.4 98.1176 32.4V34.2ZM87.9176 36.6H92.7176C94.0676 36.6 95.1176 35.55 95.1176 34.2V32.4C95.1176 31.05 94.0676 30 92.7176 30H87.9176V36.6ZM116.106 34.2C116.106 37.2 113.706 39.6 110.706 39.6H105.906V48H102.906V27H110.706C113.706 27 116.106 29.4 116.106 32.4V34.2ZM105.906 36.6H110.706C112.056 36.6 113.106 35.55 113.106 34.2V32.4C113.106 31.05 112.056 30 110.706 30H105.906V36.6ZM123.894 27V45H134.094V48H120.894V27H123.894ZM143.982 48V40.53L138.882 34.2V27H141.882V33.12L145.422 37.53H145.482L149.082 32.82V27H152.082V33.84L146.982 40.53V48H143.982Z" fill="#45E871"/>
</svg>
