<svg width="166" height="54" viewBox="0 0 166 54" fill="none" xmlns="http://www.w3.org/2000/svg">
<mask id="path-1-inside-1_936_1924" fill="white">
<path fill-rule="evenodd" clip-rule="evenodd" d="M158.496 0H6.41699V5.17383H0V47.7122H6.41699V53.4604H158.496V47.7122H165.555V5.17383H158.496V0Z"/>
</mask>
<path fill-rule="evenodd" clip-rule="evenodd" d="M158.496 0H6.41699V5.17383H0V47.7122H6.41699V53.4604H158.496V47.7122H165.555V5.17383H158.496V0Z" fill="black"/>
<path d="M6.41699 0V-1.72453H4.69246V0H6.41699ZM158.496 0H160.221V-1.72453H158.496V0ZM6.41699 5.17383V6.89836H8.14152V5.17383H6.41699ZM0 5.17383V3.4493H-1.72453V5.17383H0ZM0 47.7122H-1.72453V49.4367H0V47.7122ZM6.41699 47.7122H8.14152V45.9877H6.41699V47.7122ZM6.41699 53.4604H4.69246V55.1849H6.41699V53.4604ZM158.496 53.4604V55.1849H160.221V53.4604H158.496ZM158.496 47.7122V45.9877H156.772V47.7122H158.496ZM165.555 47.7122V49.4367H167.279V47.7122H165.555ZM165.555 5.17383H167.279V3.4493H165.555V5.17383ZM158.496 5.17383H156.772V6.89836H158.496V5.17383ZM6.41699 1.72453H158.496V-1.72453H6.41699V1.72453ZM8.14152 5.17383V0H4.69246V5.17383H8.14152ZM0 6.89836H6.41699V3.4493H0V6.89836ZM1.72453 47.7122V5.17383H-1.72453V47.7122H1.72453ZM6.41699 45.9877H0V49.4367H6.41699V45.9877ZM8.14152 53.4604V47.7122H4.69246V53.4604H8.14152ZM158.496 51.7359H6.41699V55.1849H158.496V51.7359ZM156.772 47.7122V53.4604H160.221V47.7122H156.772ZM165.555 45.9877H158.496V49.4367H165.555V45.9877ZM163.83 5.17383V47.7122H167.279V5.17383H163.83ZM158.496 6.89836H165.555V3.4493H158.496V6.89836ZM156.772 0V5.17383H160.221V0H156.772Z" fill="#45E871" mask="url(#path-1-inside-1_936_1924)"/>
<path d="M46.3553 37.23H43.5961V30.8837L48.2868 17.9153H51.046L55.7368 30.8837V37.23H52.9775V32.76H46.3553V37.23ZM46.852 30.0008H52.4808L49.694 22.2749H49.6388L46.852 30.0008ZM72.2814 24.5375C72.2814 27.2967 70.074 29.5041 67.3148 29.5041H62.9V37.23H60.1408V17.9153H67.3148C70.074 17.9153 72.2814 20.1227 72.2814 22.8819V24.5375ZM62.9 26.7448H67.3148C68.5565 26.7448 69.5222 25.7791 69.5222 24.5375V22.8819C69.5222 21.6402 68.5565 20.6745 67.3148 20.6745H62.9V26.7448ZM88.8261 24.5375C88.8261 27.2967 86.6187 29.5041 83.8595 29.5041H79.4447V37.23H76.6855V17.9153H83.8595C86.6187 17.9153 88.8261 20.1227 88.8261 22.8819V24.5375ZM79.4447 26.7448H83.8595C85.1012 26.7448 86.0669 25.7791 86.0669 24.5375V22.8819C86.0669 21.6402 85.1012 20.6745 83.8595 20.6745H79.4447V26.7448ZM95.9894 17.9153V34.4707H105.371V37.23H93.2302V17.9153H95.9894ZM114.466 37.23V30.3595L109.775 24.5375V17.9153H112.534V23.5441L115.79 27.6002H115.845L119.156 23.2682V17.9153H121.916V24.2063L117.225 30.3595V37.23H114.466Z" fill="#45E871"/>
</svg>
