<svg width="23" height="18" viewBox="0 0 23 18" fill="none" xmlns="http://www.w3.org/2000/svg">
<path d="M0.933186 17.5462C0.727792 17.5458 0.528257 17.4831 0.365389 17.3678C0.202522 17.2524 0.0853827 17.0909 0.0320622 16.9081C-0.0212583 16.7253 -0.00779552 16.5314 0.0703726 16.3563C0.148541 16.1813 0.287066 16.0348 0.464556 15.9395L13.2238 9.1501C13.4387 9.03581 13.694 9.00487 13.9337 9.06409C14.1733 9.1233 14.3776 9.26783 14.5016 9.46587C14.6256 9.6639 14.6592 9.89923 14.5949 10.1201C14.5307 10.3409 14.3739 10.5292 14.159 10.6435L1.39765 17.431C1.2566 17.5066 1.09633 17.5463 0.933186 17.5462Z" fill="white"/>
<path d="M6.85897 17.6959C6.65357 17.6955 6.45404 17.6328 6.29117 17.5174C6.1283 17.4021 6.01116 17.2406 5.95784 17.0578C5.90452 16.875 5.91799 16.6811 5.99615 16.506C6.07432 16.331 6.21285 16.1845 6.39034 16.0892L12.1243 13.0371C12.2307 12.9756 12.3496 12.9344 12.4737 12.9161C12.5978 12.8978 12.7246 12.9027 12.8466 12.9306C12.9686 12.9585 13.0832 13.0088 13.1836 13.0784C13.2841 13.1481 13.3683 13.2356 13.4311 13.3359C13.494 13.4362 13.5343 13.5472 13.5496 13.6621C13.565 13.7771 13.555 13.8937 13.5203 14.0051C13.4856 14.1164 13.4269 14.2201 13.3477 14.3101C13.2685 14.4001 13.1705 14.4744 13.0595 14.5286L7.32551 17.5807C7.18374 17.6563 7.02278 17.6961 6.85897 17.6959Z" fill="white"/>
<path d="M7.30885 7.54314C7.10279 7.54346 6.90239 7.48106 6.73877 7.36562C6.57516 7.25018 6.45749 7.08817 6.40406 6.90476C6.35063 6.72135 6.36442 6.52681 6.44329 6.35136C6.52216 6.17592 6.6617 6.02939 6.84022 5.93456L10.2206 4.13594C10.327 4.07935 10.4445 4.04262 10.5663 4.02786C10.6881 4.01311 10.8118 4.0206 10.9305 4.04992C11.0491 4.07924 11.1603 4.12982 11.2578 4.19876C11.3552 4.26769 11.437 4.35365 11.4984 4.45171C11.5598 4.54976 11.5997 4.65801 11.6157 4.77026C11.6317 4.88251 11.6236 4.99657 11.5917 5.10592C11.5599 5.21528 11.505 5.31779 11.4302 5.4076C11.3554 5.49741 11.2622 5.57276 11.1558 5.62935L7.7754 7.42797C7.63336 7.50301 7.47257 7.54271 7.30885 7.54314Z" fill="white"/>
<path d="M11.2182 8.80065C11.0119 8.80184 10.8111 8.74 10.647 8.6248C10.4829 8.5096 10.3648 8.34754 10.3113 8.16395C10.2577 7.98037 10.2717 7.7856 10.351 7.61011C10.4303 7.43461 10.5705 7.28828 10.7496 7.19399L14.1633 5.37618C14.3782 5.26188 14.6335 5.23094 14.8731 5.29016C15.1128 5.34938 15.3171 5.4939 15.4411 5.69194C15.5651 5.88998 15.5987 6.12531 15.5344 6.34616C15.4702 6.56701 15.3133 6.75529 15.0985 6.86958L11.6848 8.68548C11.543 8.76111 11.382 8.80084 11.2182 8.80065Z" fill="white"/>
<path d="M4.16823 12.553C3.96217 12.5534 3.76176 12.491 3.59815 12.3755C3.43453 12.2601 3.31687 12.0981 3.26343 11.9147C3.21 11.7313 3.22379 11.5367 3.30266 11.3613C3.38154 11.1858 3.52107 11.0393 3.6996 10.9445L8.19011 8.55463C8.40458 8.44671 8.65635 8.42044 8.89156 8.48144C9.12677 8.54244 9.32674 8.68586 9.44867 8.88101C9.57061 9.07616 9.60482 9.30754 9.54399 9.52565C9.48317 9.74375 9.33213 9.93126 9.12321 10.048L4.63477 12.4379C4.49262 12.5127 4.33191 12.5524 4.16823 12.553Z" fill="white"/>
<path d="M17.9784 17.5767C17.8141 17.5766 17.6527 17.5367 17.5104 17.4609C17.3682 17.385 17.2501 17.276 17.1682 17.1448L14.4085 12.7413C14.2844 12.5433 14.2509 12.308 14.3151 12.0871C14.3794 11.8662 14.5362 11.678 14.7511 11.5637C14.966 11.4494 15.2213 11.4184 15.4609 11.4777C15.7006 11.5369 15.9049 11.6814 16.0289 11.8794L18.7865 16.2829C18.9104 16.481 18.9441 16.7163 18.8801 16.9373C18.816 17.1582 18.6595 17.3467 18.4449 17.4615C18.3028 17.5363 18.1421 17.576 17.9784 17.5767Z" fill="white"/>
<path d="M17.9227 11.8204C17.7584 11.8204 17.597 11.7804 17.4547 11.7046C17.3125 11.6288 17.1945 11.5197 17.1125 11.3885L15.5608 8.91612C15.4368 8.71808 15.4032 8.48275 15.4675 8.2619C15.5317 8.04105 15.6885 7.85277 15.9034 7.73848C16.1183 7.62419 16.3736 7.59325 16.6133 7.65246C16.8529 7.71168 17.0572 7.85621 17.1812 8.05425L18.7308 10.5266C18.8132 10.6577 18.8566 10.8064 18.8567 10.9579C18.8568 11.1094 18.8136 11.2582 18.7315 11.3894C18.6493 11.5205 18.5311 11.6294 18.3888 11.7051C18.2464 11.7808 18.0849 11.8206 17.9206 11.8204H17.9227Z" fill="white"/>
<path d="M13.2846 4.41245C13.1204 4.41279 12.9591 4.37322 12.8168 4.29772C12.6746 4.22223 12.5564 4.11348 12.4744 3.98247L10.8081 1.32005C10.7413 1.22194 10.6966 1.11243 10.6768 0.998051C10.6569 0.883675 10.6623 0.766783 10.6926 0.654359C10.7228 0.541936 10.7774 0.436289 10.8529 0.343727C10.9285 0.251166 11.0235 0.173591 11.1323 0.115637C11.2411 0.0576828 11.3615 0.020538 11.4863 0.00642332C11.611 -0.00769133 11.7376 0.00151098 11.8584 0.0334844C11.9792 0.0654577 12.0917 0.119546 12.1893 0.192514C12.2869 0.265482 12.3676 0.355833 12.4265 0.458172L14.0927 3.12059C14.1751 3.25137 14.2187 3.39987 14.2189 3.55111C14.2192 3.70235 14.1762 3.85098 14.0942 3.98201C14.0122 4.11303 13.8942 4.22182 13.7521 4.29739C13.6099 4.37296 13.4487 4.41265 13.2846 4.41245Z" fill="white"/>
<path d="M21.5151 17.5555C21.3504 17.5549 21.1888 17.5143 21.0466 17.4378C20.9043 17.3613 20.7865 17.2516 20.7049 17.1198L18.6575 13.8566C18.5335 13.6585 18.4999 13.4232 18.5641 13.2023C18.6284 12.9815 18.7852 12.7932 19.0001 12.6789C19.215 12.5646 19.4703 12.5337 19.71 12.5929C19.9496 12.6521 20.1539 12.7966 20.2779 12.9947L22.3253 16.2579C22.407 16.3891 22.4499 16.5377 22.4497 16.6889C22.4495 16.8402 22.4062 16.9887 22.3242 17.1197C22.2421 17.2507 22.1242 17.3595 21.9822 17.4353C21.8403 17.5111 21.6792 17.5513 21.5151 17.5517V17.5555Z" fill="white"/>
<path d="M13.0618 17.7053C12.8557 17.7056 12.6553 17.6432 12.4917 17.5278C12.3281 17.4123 12.2104 17.2503 12.157 17.0669C12.1036 16.8835 12.1173 16.689 12.1962 16.5135C12.2751 16.3381 12.4146 16.1916 12.5931 16.0967L13.7241 15.4959C13.938 15.3914 14.1876 15.3674 14.4203 15.429C14.653 15.4906 14.8507 15.633 14.9719 15.8262C15.093 16.0194 15.1281 16.2483 15.0698 16.4649C15.0115 16.6815 14.8644 16.8688 14.6593 16.9874L13.5283 17.5901C13.3862 17.6649 13.2255 17.7046 13.0618 17.7053Z" fill="white"/>
</svg>
