<svg width="670" height="83" viewBox="0 0 670 83" fill="none" xmlns="http://www.w3.org/2000/svg">
<path d="M505.45 76.1794L500.095 56.6795H474.634L469.178 76.1794H460.691L482.414 3.43359H492.922L514.544 76.1794H505.45ZM476.554 50.1122H498.277L487.567 11.3144L476.554 50.1122Z" fill="white" fill-opacity="0.9"/>
<path d="M382.136 82.042C376.545 82.042 373.683 79.8192 373.548 75.3736C373.548 73.4876 374.154 71.8037 375.367 70.3218C376.579 68.7726 378.061 67.998 379.812 67.998C381.092 67.998 382.17 68.5368 383.045 69.6146C383.786 70.4229 384.157 71.4332 384.157 72.6456C384.157 75.9462 382.607 77.5964 379.509 77.5964C377.892 77.5964 376.747 76.9565 376.074 75.6767C376.411 78.1016 378.364 79.314 381.934 79.314C382.742 79.314 383.483 79.213 384.157 79.0109C392.037 76.9902 399.144 70.7933 405.475 60.4203L407.496 57.0861C403.791 51.7649 401.939 47.0836 401.939 43.0421C401.939 40.4152 402.714 38.3945 404.263 36.98C405.745 35.4981 407.799 34.7572 410.426 34.7572C412.783 34.7572 415.478 35.4308 418.509 36.7779L423.662 26.7754C426.423 21.3194 429.084 17.1096 431.643 14.1459C434.742 10.4412 438.278 7.88164 442.252 6.46714C440.568 6.19771 438.783 6.02932 436.897 5.96196C435.079 5.82725 433.125 5.75989 431.037 5.75989C418.711 5.75989 409.954 7.27543 404.768 10.3065C403.084 11.3169 401.568 12.3946 400.221 13.5397C398.874 14.6174 397.729 15.7288 396.786 16.8738C394.9 19.2313 393.957 21.4205 393.957 23.4412C393.957 25.7987 395.338 27.2469 398.1 27.7857C399.043 27.9878 399.986 28.0888 400.929 28.0888C407.462 28.0888 413.524 25.3945 419.115 20.0059C419.384 19.7365 419.688 19.6692 420.024 19.8039C420.294 19.8712 420.428 20.0733 420.428 20.4101C420.428 20.6122 420.395 20.7469 420.327 20.8142C419.25 22.1614 417.936 23.4075 416.387 24.5526C414.838 25.6976 413.053 26.7417 411.032 27.6847C406.991 29.5707 403.084 30.5137 399.312 30.5137C396.348 30.5137 393.789 29.8401 391.633 28.493C389.074 26.9437 387.794 24.7883 387.794 22.0267C387.794 19.5345 388.838 17.1096 390.926 14.7521C397.056 7.61221 409.348 4.04228 427.804 4.04228C430.768 4.04228 433.631 4.14332 436.392 4.34539C439.221 4.54746 441.983 4.88425 444.677 5.35575C447.035 4.74953 449.089 4.44642 450.84 4.44642C454.276 4.44642 455.993 5.28839 455.993 6.97232C455.993 7.78061 455.522 8.45418 454.579 8.99304C453.636 9.5319 452.524 9.80133 451.244 9.80133C450.504 9.80133 449.594 9.59925 448.516 9.19511C447.506 8.79097 446.294 8.15107 444.879 7.27543C441.646 8.48786 438.985 10.5759 436.897 13.5397C436.156 14.6174 435.348 16.1329 434.473 18.0863C433.597 20.0396 432.654 22.3971 431.643 25.1588C430.364 28.594 429.185 31.6924 428.107 34.4541C427.097 37.1484 426.154 39.4722 425.278 41.4256C427.838 43.5136 430.162 46.0395 432.25 49.0032C433.934 51.2934 435.483 53.6172 436.897 55.9747C438.312 58.3322 439.659 60.7571 440.939 63.2493C441.074 56.4462 443.027 48.4307 446.799 39.2028C448.483 35.1613 450.301 31.322 452.255 27.6847C454.276 24.0474 456.431 20.6122 458.721 17.379C465.322 8.08372 471.755 3.03192 478.019 2.22363H478.524C478.996 2.22363 479.231 2.39203 479.231 2.72881C479.231 3.20031 479.029 3.43607 478.625 3.43607C474.045 3.97492 469.263 8.28579 464.278 16.3687C462.055 19.9386 459.967 23.9127 458.014 28.2909C456.061 32.6691 454.276 37.4178 452.659 42.5369C449.426 52.5058 447.809 60.656 447.809 66.9876C447.809 72.713 449.19 75.5757 451.952 75.5757C453.77 75.5757 455.993 73.8918 458.62 70.5239C461.18 67.2907 464.211 62.0369 467.713 54.7623C467.983 54.0887 468.32 53.6846 468.724 53.5499H468.825C469.094 53.5499 469.229 53.7856 469.229 54.2571C469.229 54.6613 469.06 55.2001 468.724 55.8737C465.019 63.4177 462.763 67.8296 461.954 69.1094C458.654 74.4306 455.32 77.2933 451.952 77.6974C451.682 77.7648 451.447 77.7985 451.244 77.7985C451.042 77.7985 450.807 77.7985 450.537 77.7985C446.294 77.7985 443.364 75.2726 441.747 70.2208C441.478 69.3451 441.006 68.2674 440.333 66.9876C439.659 65.6405 438.75 64.0239 437.605 62.1379C436.325 59.9825 435.011 57.9954 433.664 56.1768C432.384 54.2908 431.071 52.6069 429.724 51.125C428.713 49.9799 427.703 48.9359 426.693 47.9929C425.682 46.9825 424.638 46.0395 423.561 45.1639C422.079 48.2623 420.53 51.1924 418.913 53.954C417.364 56.6483 415.713 59.1742 413.962 61.5317C417.465 65.4384 421.439 68.6042 425.884 71.0291C426.221 71.1638 426.289 71.3995 426.087 71.7363C425.884 71.9384 425.615 72.0057 425.278 71.9384C420.698 69.9177 416.454 67.0213 412.548 63.2493C409.921 66.5498 406.957 69.7156 403.657 72.7467C400.356 75.7777 396.921 78.0679 393.351 79.6171C389.781 81.2337 386.043 82.042 382.136 82.042ZM408.91 54.5602C410.055 52.6069 411.234 50.4851 412.447 48.195C413.726 45.9048 415.04 43.48 416.387 40.9204C414.77 40.2468 413.188 39.91 411.638 39.91C407.866 39.91 405.98 41.8297 405.98 45.6691C405.98 48.0939 406.957 51.0576 408.91 54.5602Z" fill="white" fill-opacity="0.9"/>
<path d="M364.396 3.43359V76.1794H353.282L329.639 14.7496V76.1794H321.859V3.43359H333.276L356.818 63.9541V3.43359H364.396Z" fill="white" fill-opacity="0.9"/>
<path d="M253.336 39.8079C253.336 32.7354 254.077 26.8079 255.559 22.0256C257.041 17.1759 258.994 13.2691 261.419 10.3054C263.844 7.34169 266.606 5.21994 269.704 3.94015C272.87 2.59301 276.137 1.91943 279.505 1.91943C282.873 1.91943 286.106 2.59301 289.204 3.94015C292.37 5.21994 295.165 7.34169 297.59 10.3054C300.015 13.2691 301.968 17.1759 303.45 22.0256C304.932 26.8079 305.673 32.7354 305.673 39.8079C305.673 46.8804 304.932 52.8415 303.45 57.6912C301.968 62.4736 300.015 66.3466 297.59 69.3104C295.165 72.2741 292.37 74.4295 289.204 75.7767C286.038 77.0564 282.805 77.6963 279.505 77.6963C276.137 77.6963 272.87 77.0564 269.704 75.7767C266.606 74.4295 263.844 72.2741 261.419 69.3104C258.994 66.3466 257.041 62.4736 255.559 57.6912C254.077 52.8415 253.336 46.8804 253.336 39.8079ZM262.127 39.8079C262.127 50.0462 263.575 57.826 266.471 63.1472C269.367 68.4684 273.712 71.129 279.505 71.129C285.297 71.129 289.642 68.4684 292.538 63.1472C295.435 57.826 296.883 50.0462 296.883 39.8079C296.883 29.5696 295.435 21.7898 292.538 16.4686C289.642 11.1474 285.297 8.48677 279.505 8.48677C273.712 8.48677 269.367 11.1474 266.471 16.4686C263.575 21.7898 262.127 29.5696 262.127 39.8079Z" fill="white" fill-opacity="0.9"/>
<path d="M246.848 10.9102H229.065V76.1794H220.477V10.9102H202.897V3.43359H246.848V10.9102Z" fill="white" fill-opacity="0.9"/>
<path d="M175.205 8.5878C171.433 8.5878 168.334 9.49712 165.909 11.3158C163.484 13.0671 162.272 15.8624 162.272 19.7017C162.272 21.453 162.508 23.0023 162.979 24.3494C163.451 25.6965 164.225 26.909 165.303 27.9867C166.448 29.0644 167.93 30.1084 169.749 31.1188C171.567 32.0618 173.824 33.0385 176.518 34.0488C179.145 35.0592 181.637 36.1706 183.995 37.383C186.352 38.5955 188.407 40.0773 190.158 41.8286C191.977 43.5799 193.391 45.7016 194.401 48.1939C195.479 50.6861 196.018 53.7172 196.018 57.2871C196.018 60.0487 195.445 62.6757 194.3 65.1679C193.223 67.6601 191.673 69.8492 189.653 71.7352C187.699 73.5539 185.342 75.0021 182.58 76.0798C179.819 77.1575 176.788 77.6963 173.487 77.6963C170.119 77.6963 167.155 77.2585 164.596 76.3829C162.104 75.5746 159.948 74.4969 158.13 73.1497C156.311 71.7352 154.795 70.1523 153.583 68.401C152.438 66.6497 151.529 64.8311 150.855 62.9451L158.13 60.2171C158.601 61.5643 159.207 62.8777 159.948 64.1575C160.756 65.4373 161.767 66.5824 162.979 67.5928C164.192 68.5358 165.64 69.3104 167.324 69.9166C169.075 70.5228 171.163 70.8259 173.588 70.8259C175.205 70.8259 176.821 70.6238 178.438 70.2197C180.054 69.7482 181.503 69.0073 182.782 67.9969C184.129 66.9865 185.207 65.6394 186.015 63.9555C186.824 62.2715 187.228 60.2171 187.228 57.7923C187.228 55.2327 186.891 53.111 186.218 51.427C185.611 49.7431 184.601 48.2612 183.186 46.9814C181.839 45.7016 180.054 44.5566 177.832 43.5462C175.609 42.5359 172.948 41.3908 169.85 40.111C164.394 37.8882 160.352 35.1939 157.725 32.0281C155.166 28.8623 153.886 24.9556 153.886 20.308C153.886 17.7484 154.358 15.3572 155.301 13.1344C156.244 10.8443 157.624 8.89091 159.443 7.27433C161.262 5.5904 163.451 4.27694 166.01 3.33394C168.637 2.39093 171.635 1.91943 175.003 1.91943C180.728 1.91943 185.207 3.09818 188.44 5.45569C191.673 7.74584 194.166 10.8779 195.917 14.852L188.44 17.479C187.295 14.65 185.712 12.4608 183.692 10.9116C181.671 9.36241 178.842 8.5878 175.205 8.5878Z" fill="white" fill-opacity="0.9"/>
<path d="M87.5742 39.8079C87.5742 32.7354 88.3151 26.8079 89.797 22.0256C91.2789 17.1759 93.2322 13.2691 95.6571 10.3054C98.082 7.34169 100.844 5.21994 103.942 3.94015C107.108 2.59301 110.375 1.91943 113.743 1.91943C117.11 1.91943 120.344 2.59301 123.442 3.94015C126.608 5.21994 129.403 7.34169 131.828 10.3054C134.253 13.2691 136.206 17.1759 137.688 22.0256C139.17 26.8079 139.911 32.7354 139.911 39.8079C139.911 46.8804 139.17 52.8415 137.688 57.6912C136.206 62.4736 134.253 66.3466 131.828 69.3104C129.403 72.2741 126.608 74.4295 123.442 75.7767C120.276 77.0564 117.043 77.6963 113.743 77.6963C110.375 77.6963 107.108 77.0564 103.942 75.7767C100.844 74.4295 98.082 72.2741 95.6571 69.3104C93.2322 66.3466 91.2789 62.4736 89.797 57.6912C88.3151 52.8415 87.5742 46.8804 87.5742 39.8079ZM96.3643 39.8079C96.3643 50.0462 97.8125 57.826 100.709 63.1472C103.605 68.4684 107.95 71.129 113.743 71.129C119.535 71.129 123.88 68.4684 126.776 63.1472C129.673 57.826 131.121 50.0462 131.121 39.8079C131.121 29.5696 129.673 21.7898 126.776 16.4686C123.88 11.1474 119.535 8.48677 113.743 8.48677C107.95 8.48677 103.605 11.1474 100.709 16.4686C97.8125 21.7898 96.3643 29.5696 96.3643 39.8079Z" fill="white" fill-opacity="0.9"/>
<path d="M8.48701 82.0411C2.829 82.0411 0 79.8183 0 75.3728C0 73.2847 0.707251 71.4997 2.12175 70.0178C3.53626 68.4686 5.22019 67.694 7.17355 67.694C8.58805 67.694 9.69944 68.1655 10.5077 69.1085C11.1139 69.9168 11.4171 70.7925 11.4171 71.7355C11.4171 72.5437 11.2487 73.352 10.9119 74.1603C10.6424 74.9013 10.1373 75.5411 9.39634 76.08C8.31862 77.0904 7.07251 77.5955 5.65801 77.5955C4.44558 77.5955 3.43522 77.1914 2.62693 76.3831C3.36786 78.3365 5.28754 79.3132 8.38598 79.3132C9.19427 79.3132 9.9352 79.2121 10.6088 79.01C16.4015 77.4608 21.4533 74.1266 25.7642 69.0075C29.4688 64.4946 34.3185 56.3443 40.3133 44.5568L55.3677 14.9533C56.176 13.4041 57.0853 11.9896 58.0956 10.7098C59.1734 9.36266 60.2847 8.15022 61.4298 7.07251C58.8702 7.13987 56.176 7.47665 53.3469 8.08287C50.5853 8.68908 47.6889 9.49737 44.6579 10.5077C38.5284 12.5958 33.746 15.0207 30.3108 17.7823C23.7098 22.9688 20.4093 27.7849 20.4093 32.2304C20.4093 34.8574 21.9248 36.1708 24.9559 36.1708C28.5258 36.1708 32.2641 35.0258 36.1708 32.7356C39.7408 30.6475 42.8392 27.9869 45.4661 24.7538C45.6682 24.5517 45.8703 24.4507 46.0724 24.4507C46.5439 24.4507 46.7796 24.6191 46.7796 24.9559C46.7796 27.5828 43.5465 30.6139 37.0802 34.0491C31.1527 37.2822 26.6398 38.8988 23.5414 38.8988C17.2771 38.8988 14.145 36.5076 14.145 31.7253C14.145 29.5025 15.0207 27.145 16.772 24.6527C18.86 21.689 21.6554 19.0284 25.1579 16.6709C28.6605 14.2461 32.904 12.1243 37.8885 10.3057C46.5102 7.13986 54.9298 5.52329 63.1474 5.45593C67.3909 1.81864 71.7692 0 76.2821 0C78.1681 0 79.9531 0.370465 81.637 1.11139C81.9738 1.24611 82.1422 1.48185 82.1422 1.81864C82.1422 2.829 81.8727 3.16579 81.3339 2.829C80.2562 2.22279 78.909 1.91968 77.2925 1.91968C74.0593 1.91968 70.9609 3.13211 67.9971 5.55697C73.5878 6.09583 77.764 7.64504 80.5256 10.2046C82.8158 12.4948 83.9608 15.1217 83.9608 18.0854C83.9608 22.531 82.0411 26.9766 78.2018 31.4222C74.4971 35.733 69.9168 38.8314 64.4609 40.7174C73.6215 42.334 78.2018 46.7796 78.2018 54.0542C78.2018 60.1163 75.0697 65.9427 68.8054 71.5334C62.0024 77.5282 53.7848 80.8624 44.1527 81.5359C43.6812 81.6033 43.176 81.637 42.6371 81.637C42.1656 81.637 41.6605 81.637 41.1216 81.637C32.2978 81.637 27.9196 78.9764 27.9869 73.6551C21.1839 79.2458 14.6839 82.0411 8.48701 82.0411ZM50.5179 40.6164C51.8651 40.4817 53.1786 40.3807 54.4583 40.3133C55.8055 40.1786 57.0853 40.1112 58.2977 40.1112C63.3495 39.2356 67.7614 36.6423 71.5334 32.3315C75.4401 27.8859 77.3935 23.2382 77.3935 18.3885C77.3935 15.7616 76.6189 13.5051 75.0697 11.6191C73.1163 9.19426 70.1526 7.7124 66.1785 7.17354C64.8987 8.45333 63.7536 9.93519 62.7433 11.6191C61.8003 13.2357 60.9246 15.0207 60.1164 16.974L50.5179 40.6164ZM40.5154 79.9194C41.8625 79.9194 43.3444 79.751 44.961 79.4142C46.5775 79.0774 48.3962 78.6059 50.4169 77.9997C56.277 76.1137 61.1604 72.8469 65.0671 68.1992C69.1086 63.4168 71.1293 58.8365 71.1293 54.4583C71.1293 51.0231 69.8495 48.2951 67.2899 46.2744C64.4609 44.0516 60.3184 42.9402 54.8625 42.9402C53.1786 42.9402 51.3599 43.0413 49.4066 43.2433C48.8677 44.5905 48.1268 46.2407 47.1838 48.1941C46.3081 50.1475 45.1967 52.3366 43.8496 54.7614C43.3781 55.5697 42.8729 56.4117 42.334 57.2873C41.7952 58.163 41.189 59.0723 40.5154 60.0153C43.2097 58.6682 45.9713 57.5231 48.8003 56.5801C51.6967 55.5697 54.6941 54.7278 57.7925 54.0542C58.7355 53.8521 59.4428 53.7511 59.9143 53.7511C60.6552 53.7511 61.0257 53.8858 61.0257 54.1552C61.0257 54.8288 59.9816 55.4013 57.8936 55.8728C48.935 58.2303 42.132 61.834 37.4843 66.6837C34.588 69.6474 33.1398 72.2406 33.1398 74.4634C33.1398 75.6085 33.5102 76.6525 34.2512 77.5955C35.5983 79.1448 37.6864 79.9194 40.5154 79.9194Z" fill="white" fill-opacity="0.9"/>
<path d="M649.006 8.58633C645.234 8.58633 642.136 9.49566 639.711 11.3143C637.286 13.0656 636.074 15.8609 636.074 19.7003C636.074 21.4516 636.31 23.0008 636.781 24.3479C637.253 25.6951 638.027 26.9075 639.105 27.9852C640.25 29.0629 641.732 30.107 643.55 31.1173C645.369 32.0603 647.626 33.037 650.32 34.0474C652.947 35.0577 655.439 36.1691 657.797 37.3816C660.154 38.594 662.208 40.0758 663.96 41.8271C665.778 43.5784 667.193 45.7002 668.203 48.1924C669.281 50.6846 669.82 53.7157 669.82 57.2856C669.82 60.0473 669.247 62.6742 668.102 65.1664C667.024 67.6587 665.475 69.8478 663.455 71.7338C661.501 73.5524 659.144 75.0006 656.382 76.0783C653.62 77.156 650.589 77.6949 647.289 77.6949C643.921 77.6949 640.957 77.2571 638.398 76.3814C635.905 75.5731 633.75 74.4954 631.931 73.1483C630.113 71.7338 628.597 70.1509 627.385 68.3996C626.24 66.6483 625.33 64.8296 624.657 62.9436L631.931 60.2157C632.403 61.5628 633.009 62.8763 633.75 64.1561C634.558 65.4359 635.569 66.5809 636.781 67.5913C637.993 68.5343 639.442 69.3089 641.126 69.9151C642.877 70.5213 644.965 70.8244 647.39 70.8244C649.006 70.8244 650.623 70.6224 652.24 70.2182C653.856 69.7467 655.304 69.0058 656.584 67.9954C657.931 66.9851 659.009 65.6379 659.817 63.954C660.626 62.2701 661.03 60.2157 661.03 57.7908C661.03 55.2312 660.693 53.1095 660.019 51.4256C659.413 49.7416 658.403 48.2598 656.988 46.98C655.641 45.7002 653.856 44.5551 651.633 43.5448C649.411 42.5344 646.75 41.3893 643.651 40.1095C638.196 37.8867 634.154 35.1925 631.527 32.0267C628.968 28.8609 627.688 24.9541 627.688 20.3065C627.688 17.7469 628.159 15.3557 629.102 13.133C630.045 10.8428 631.426 8.88944 633.245 7.27287C635.063 5.58894 637.253 4.27547 639.812 3.33247C642.439 2.38947 645.436 1.91797 648.804 1.91797C654.53 1.91797 659.009 3.09672 662.242 5.45422C665.475 7.74437 667.967 10.8765 669.719 14.8506L662.242 17.4775C661.097 14.6485 659.514 12.4594 657.493 10.9102C655.473 9.36094 652.644 8.58633 649.006 8.58633Z" fill="white" fill-opacity="0.9"/>
<path d="M609.773 76.178L584.615 42.3309V76.178H576.027V3.43213H584.615V35.1574L607.449 3.43213H617.047L591.687 38.0874L620.281 76.178H609.773Z" fill="white" fill-opacity="0.9"/>
<path d="M561.777 64.1561C559.891 68.1975 557.298 71.4643 553.997 73.9566C550.696 76.4488 546.352 77.6949 540.963 77.6949C538.269 77.6949 535.406 77.1897 532.375 76.1793C529.412 75.1016 526.65 73.1483 524.09 70.3193C521.531 67.4903 519.409 63.6172 517.725 58.7001C516.041 53.7831 515.199 47.4851 515.199 39.8064C515.199 32.2624 516.008 26.0319 517.624 21.1148C519.241 16.1977 521.295 12.3247 523.787 9.49566C526.347 6.66665 529.142 4.71329 532.173 3.63557C535.204 2.4905 538.168 1.91797 541.064 1.91797C543.691 1.91797 546.049 2.25475 548.137 2.92833C550.292 3.6019 552.178 4.51122 553.795 5.6563C555.411 6.73401 556.792 8.0138 557.937 9.49566C559.15 10.9775 560.127 12.5267 560.867 14.1433L553.29 17.0733C552.212 14.3117 550.696 12.2236 548.743 10.8091C546.857 9.39462 544.298 8.68737 541.064 8.68737C538.774 8.68737 536.585 9.19255 534.497 10.2029C532.476 11.1459 530.691 12.8298 529.142 15.2547C527.593 17.6122 526.347 20.778 525.404 24.7521C524.528 28.7262 524.09 33.7443 524.09 39.8064C524.09 45.8012 524.562 50.7857 525.505 54.7597C526.448 58.7338 527.694 61.8996 529.243 64.2571C530.86 66.6146 532.678 68.2985 534.699 69.3089C536.787 70.3193 538.943 70.8244 541.165 70.8244C544.87 70.8244 547.699 69.9151 549.652 68.0965C551.606 66.2105 553.189 63.853 554.401 61.024L561.777 64.1561Z" fill="white" fill-opacity="0.9"/>
</svg>
