<svg width="228" height="184" viewBox="0 0 228 184" fill="none" xmlns="http://www.w3.org/2000/svg">
<g id="element" filter="url(#filter0_d_936_1708)">
<path id="Ellipse 27" d="M113 91.2225C113 114.262 106.886 135.074 97.0542 150.096C87.2164 165.127 73.7408 174.256 59 174.256C44.2592 174.256 30.7836 165.127 20.9458 150.096C11.1139 135.074 5 114.262 5 91.2225C5 68.1835 11.1139 47.3715 20.9458 32.3493C30.7836 17.3183 44.2592 8.18872 59 8.18872C73.7408 8.18872 87.2164 17.3183 97.0542 32.3493C106.886 47.3715 113 68.1835 113 91.2225Z" stroke="white" stroke-width="2"/>
<path id="Ellipse 28" d="M223 91.9663C223 115.005 216.886 135.817 207.054 150.84C197.216 165.87 183.741 175 169 175C154.259 175 140.784 165.87 130.946 150.84C121.114 135.817 115 115.005 115 91.9663C115 68.9272 121.114 48.1152 130.946 33.0931C140.784 18.0621 154.259 8.9325 169 8.9325C183.741 8.9325 197.216 18.0621 207.054 33.0931C216.886 48.1152 223 68.9272 223 91.9663Z" stroke="white" stroke-width="2"/>
<path id="Ellipse 29" d="M113 88C113 112.211 109.274 134.085 103.282 149.871C100.286 157.767 96.7415 164.087 92.8568 168.417C88.9717 172.746 84.8281 175 80.6005 175C76.3729 175 72.2294 172.746 68.3443 168.417C64.4596 164.087 60.9154 157.767 57.9185 149.871C51.9275 134.085 48.2012 112.211 48.2012 88C48.2012 63.7888 51.9275 41.9145 57.9185 26.1294C60.9154 18.2334 64.4596 11.9125 68.3443 7.58334C72.2294 3.25372 76.3729 1 80.6005 1C84.8281 1 88.9717 3.25372 92.8568 7.58334C96.7415 11.9125 100.286 18.2334 103.282 26.1294C109.274 41.9145 113 63.7888 113 88Z" stroke="white" stroke-width="2"/>
<path id="Ellipse 30" d="M147.488 88C147.488 112.256 145.561 134.189 142.456 150.033C140.902 157.964 139.063 164.317 137.049 168.664C136.041 170.84 135.013 172.46 133.997 173.521C132.982 174.581 132.063 175 131.244 175C130.425 175 129.506 174.581 128.491 173.521C127.475 172.46 126.448 170.84 125.439 168.664C123.425 164.317 121.586 157.964 120.032 150.033C116.927 134.189 115 112.256 115 88C115 63.7438 116.927 41.8113 120.032 25.9669C121.586 18.0365 123.425 11.6829 125.439 7.33585C126.448 5.15952 127.475 3.54032 128.491 2.47948C129.506 1.41933 130.425 1 131.244 1C132.063 1 132.982 1.41933 133.997 2.47948C135.013 3.54032 136.041 5.15952 137.049 7.33585C139.063 11.6829 140.902 18.0365 142.456 25.9669C145.561 41.8113 147.488 63.7438 147.488 88Z" stroke="white" stroke-width="2"/>
<ellipse id="Ellipse 31" cx="47.2016" cy="91.2224" rx="7.9868" ry="5.45352" fill="white"/>
<ellipse id="Ellipse 32" cx="196.409" cy="17.1042" rx="7.9868" ry="5.45352" fill="white"/>
</g>
<defs>
<filter id="filter0_d_936_1708" x="0" y="0" width="228" height="184" filterUnits="userSpaceOnUse" color-interpolation-filters="sRGB">
<feFlood flood-opacity="0" result="BackgroundImageFix"/>
<feColorMatrix in="SourceAlpha" type="matrix" values="0 0 0 0 0 0 0 0 0 0 0 0 0 0 0 0 0 0 127 0" result="hardAlpha"/>
<feOffset dy="4"/>
<feGaussianBlur stdDeviation="2"/>
<feComposite in2="hardAlpha" operator="out"/>
<feColorMatrix type="matrix" values="0 0 0 0 0 0 0 0 0 0 0 0 0 0 0 0 0 0 0.25 0"/>
<feBlend mode="normal" in2="BackgroundImageFix" result="effect1_dropShadow_936_1708"/>
<feBlend mode="normal" in="SourceGraphic" in2="effect1_dropShadow_936_1708" result="shape"/>
</filter>
</defs>
</svg>
