<svg width="76" height="77" viewBox="0 0 76 77" fill="none" xmlns="http://www.w3.org/2000/svg">
<path fill-rule="evenodd" clip-rule="evenodd" d="M37.8441 10.0771C30.2384 10.0771 29.2863 10.1093 26.2993 10.2473C23.3178 10.3853 21.2811 10.8655 19.5001 11.567C17.6332 12.2778 15.9399 13.3933 14.5398 14.8377C13.1157 16.254 12.0136 17.9676 11.3101 19.8592C10.6212 21.6628 10.1451 23.7274 10.0088 26.7467C9.87442 29.7698 9.84082 30.7321 9.84082 38.4364C9.84082 46.1406 9.87256 47.1029 10.0088 50.1279C10.1451 53.1472 10.6193 55.2099 11.3119 57.0135C12.0139 58.9042 13.1153 60.6189 14.5416 62.0369C15.9402 63.479 17.6323 64.5951 19.5001 65.3077C21.2811 66.0072 23.3178 66.4874 26.2993 66.6254C29.2863 66.7634 30.2384 66.7956 37.8441 66.7956C45.4497 66.7956 46.4018 66.7634 49.3889 66.6254C52.3703 66.4874 54.407 66.0072 56.188 65.3058C58.0549 64.5949 59.7482 63.4794 61.1483 62.035C62.5724 60.6187 63.6745 58.9051 64.3781 57.0135C65.0688 55.2099 65.543 53.1472 65.6793 50.1279C65.8156 47.1029 65.8473 46.1387 65.8473 38.4364C65.8473 30.734 65.8156 29.7698 65.6793 26.7448C65.543 23.7255 65.0688 21.6628 64.3762 19.8592C63.6731 17.9668 62.571 16.2525 61.1465 14.8358C59.7479 13.3937 58.0559 12.2776 56.188 11.5651C54.407 10.8674 52.3684 10.3853 49.387 10.2473C46.4018 10.1112 45.4516 10.0771 37.8441 10.0771ZM37.8441 15.1875C45.3209 15.1875 46.2077 15.2158 49.1611 15.352C51.8905 15.4786 53.3728 15.9381 54.3604 16.3294C55.6672 16.8418 56.6006 17.4581 57.5807 18.4488C58.5608 19.4414 59.1676 20.3867 59.6735 21.7101C60.0581 22.7102 60.5136 24.2114 60.6387 26.9755C60.7731 29.9664 60.8011 30.8645 60.8011 38.4364C60.8011 46.0083 60.7731 46.9063 60.6387 49.8973C60.5136 52.6613 60.06 54.1625 59.6735 55.1626C59.2253 56.3944 58.5102 57.5089 57.5807 58.4239C56.6773 59.3654 55.5768 60.0897 54.3604 60.5433C53.3728 60.9328 51.8905 61.3941 49.1611 61.5208C46.2077 61.6569 45.3228 61.6852 37.8441 61.6852C30.3653 61.6852 29.4804 61.6569 26.527 61.5208C23.7976 61.3941 22.3153 60.9347 21.3277 60.5433C20.1114 60.0894 19.011 59.3652 18.1074 58.4239C17.178 57.5088 16.4629 56.3944 16.0146 55.1626C15.63 54.1625 15.1745 52.6613 15.0494 49.8973C14.915 46.9063 14.887 46.0083 14.887 38.4364C14.887 30.8645 14.915 29.9664 15.0494 26.9755C15.1745 24.2114 15.6282 22.7102 16.0146 21.7101C16.5205 20.3867 17.1291 19.4414 18.1074 18.4488C19.0108 17.5073 20.1113 16.7831 21.3277 16.3294C22.3153 15.9399 23.7976 15.4786 26.527 15.352C29.4804 15.2158 30.3672 15.1875 37.8441 15.1875Z" fill="white"/>
<path fill-rule="evenodd" clip-rule="evenodd" d="M37.8439 47.8989C36.6168 47.8989 35.4018 47.6542 34.2682 47.1786C33.1345 46.7031 32.1045 46.0061 31.2368 45.1274C30.3692 44.2487 29.6809 43.2056 29.2114 42.0575C28.7418 40.9095 28.5001 39.679 28.5001 38.4364C28.5001 37.1937 28.7418 35.9633 29.2114 34.8152C29.6809 33.6672 30.3692 32.624 31.2368 31.7454C32.1045 30.8667 33.1345 30.1697 34.2682 29.6941C35.4018 29.2186 36.6168 28.9739 37.8439 28.9739C40.322 28.9739 42.6986 29.9708 44.4509 31.7454C46.2032 33.5199 47.1876 35.9268 47.1876 38.4364C47.1876 40.946 46.2032 43.3528 44.4509 45.1274C42.6986 46.902 40.322 47.8989 37.8439 47.8989ZM37.8439 23.8597C34.0264 23.8597 30.3653 25.3955 27.666 28.1291C24.9667 30.8628 23.4502 34.5704 23.4502 38.4364C23.4502 42.3023 24.9667 46.01 27.666 48.7436C30.3653 51.4773 34.0264 53.013 37.8439 53.013C41.6613 53.013 45.3224 51.4773 48.0217 48.7436C50.721 46.01 52.2375 42.3023 52.2375 38.4364C52.2375 34.5704 50.721 30.8628 48.0217 28.1291C45.3224 25.3955 41.6613 23.8597 37.8439 23.8597ZM56.4249 23.5951C56.4249 24.5089 56.0665 25.3853 55.4284 26.0315C54.7903 26.6777 53.9249 27.0407 53.0225 27.0407C52.1202 27.0407 51.2548 26.6777 50.6167 26.0315C49.9786 25.3853 49.6201 24.5089 49.6201 23.5951C49.6201 22.6812 49.9786 21.8048 50.6167 21.1586C51.2548 20.5124 52.1202 20.1494 53.0225 20.1494C53.9249 20.1494 54.7903 20.5124 55.4284 21.1586C56.0665 21.8048 56.4249 22.6812 56.4249 23.5951Z" fill="white"/>
</svg>
