<svg width="538" height="190" viewBox="0 0 538 190" fill="none" xmlns="http://www.w3.org/2000/svg">
<path d="M7.77463 1.81002V67H0.0785881V1.81002H7.77463ZM62.1583 1.81002V67H52.1987L31.012 11.9507V67H24.0403V1.81002H34.2715L55.3677 56.0445V1.81002H62.1583ZM111.466 8.5101H95.5307V67H87.8347V8.5101H72.0804V1.81002H111.466V8.5101ZM150.364 36.8496H129.086V60.8432H153.08V67H121.39V1.81002H153.08V7.96685H129.086V30.8739H150.364V36.8496ZM198.441 67L183.864 41.4673H174.357V67H166.661V1.81002H180.242C187.305 1.81002 192.828 3.43977 196.811 6.69927C200.795 9.8984 202.787 14.9687 202.787 21.9103C202.787 24.3851 202.485 26.5882 201.882 28.5198C201.278 30.391 200.463 32.0509 199.437 33.4996C198.411 34.9483 197.204 36.1857 195.815 37.2118C194.427 38.2379 192.948 39.083 191.379 39.747L207.586 67H198.441ZM174.357 7.69522V35.5821H180.423C185.132 35.5821 188.723 34.4654 191.198 32.232C193.673 29.9383 194.91 26.4977 194.91 21.9103C194.91 17.3228 193.793 13.8219 191.56 11.4074C189.327 8.93262 185.524 7.69522 180.152 7.69522H174.357ZM234.183 6.42764C230.803 6.42764 228.026 7.24251 225.853 8.87226C223.68 10.4417 222.594 12.9466 222.594 16.3872C222.594 17.9566 222.805 19.3449 223.228 20.5521C223.65 21.7594 224.344 22.8459 225.31 23.8116C226.336 24.7774 227.664 25.713 229.294 26.6184C230.924 27.4635 232.946 28.3387 235.36 29.2441C237.714 30.1496 239.948 31.1455 242.06 32.232C244.173 33.3185 246.014 34.6465 247.583 36.2158C249.213 37.7852 250.481 39.6866 251.386 41.92C252.352 44.1533 252.835 46.8696 252.835 50.0687C252.835 52.5435 252.322 54.8976 251.296 57.131C250.33 59.3643 248.941 61.3261 247.131 63.0162C245.38 64.6459 243.268 65.9437 240.793 66.9095C238.318 67.8752 235.602 68.3581 232.644 68.3581C229.626 68.3581 226.97 67.9658 224.676 67.1811C222.443 66.4568 220.511 65.491 218.882 64.2838C217.252 63.0162 215.894 61.5977 214.807 60.0283C213.781 58.4589 212.966 56.8292 212.363 55.139L218.882 52.6944C219.304 53.9016 219.847 55.0787 220.511 56.2255C221.236 57.3724 222.141 58.3985 223.228 59.304C224.314 60.149 225.612 60.8432 227.121 61.3864C228.69 61.9297 230.562 62.2013 232.735 62.2013C234.183 62.2013 235.632 62.0202 237.081 61.658C238.529 61.2355 239.827 60.5715 240.974 59.6661C242.181 58.7607 243.147 57.5535 243.871 56.0445C244.595 54.5354 244.958 52.6944 244.958 50.5214C244.958 48.2277 244.656 46.3263 244.052 44.8173C243.509 43.3083 242.604 41.9803 241.336 40.8335C240.129 39.6866 238.529 38.6605 236.537 37.755C234.545 36.8496 232.161 35.8235 229.384 34.6766C224.495 32.6847 220.874 30.2703 218.519 27.4333C216.226 24.5963 215.079 21.0954 215.079 16.9305C215.079 14.6367 215.501 12.4939 216.346 10.502C217.192 8.44974 218.429 6.69926 220.059 5.2506C221.688 3.74157 223.65 2.56453 225.944 1.71948C228.298 0.87442 230.984 0.451892 234.002 0.451892C239.133 0.451892 243.147 1.50821 246.044 3.62085C248.941 5.67313 251.175 8.47992 252.744 12.0412L246.044 14.3953C245.018 11.8601 243.6 9.8984 241.789 8.5101C239.978 7.12179 237.443 6.42764 234.183 6.42764ZM298.385 8.5101H282.45V67H274.754V8.5101H258.999V1.81002H298.385V8.5101ZM369.057 1.81002V60.2999H394.137V67H361.361V1.81002H369.057ZM411.764 1.81002V60.2999H436.844V67H404.068V1.81002H411.764ZM479.641 67L474.842 49.5255H452.026L447.136 67H439.531L458.997 1.81002H468.414L487.79 67H479.641ZM453.746 43.6403H473.212L463.615 8.87226L453.746 43.6403ZM528.6 67L514.023 41.4673H504.516V67H496.82V1.81002H510.401C517.463 1.81002 522.986 3.43977 526.97 6.69927C530.954 9.8984 532.946 14.9687 532.946 21.9103C532.946 24.3851 532.644 26.5882 532.04 28.5198C531.437 30.391 530.622 32.0509 529.596 33.4996C528.57 34.9483 527.362 36.1857 525.974 37.2118C524.586 38.2379 523.107 39.083 521.538 39.747L537.745 67H528.6ZM504.516 7.69522V35.5821H510.582C515.29 35.5821 518.882 34.4654 521.357 32.232C523.831 29.9383 525.069 26.4977 525.069 21.9103C525.069 17.3228 523.952 13.8219 521.719 11.4074C519.485 8.93262 515.683 7.69522 510.31 7.69522H504.516ZM19.5786 109.81V175H11.8826V109.81H19.5786ZM73.9623 109.81V175H64.0028L42.816 119.951V175H35.8443V109.81H46.0755L67.1717 164.044V109.81H73.9623ZM128.34 109.81V175H118.381L97.194 119.951V175H90.2223V109.81H100.454L121.55 164.044V109.81H128.34ZM142.79 142.405C142.79 136.067 143.454 130.755 144.781 126.47C146.109 122.124 147.86 118.623 150.033 115.967C152.206 113.311 154.681 111.41 157.457 110.263C160.294 109.056 163.222 108.452 166.24 108.452C169.258 108.452 172.155 109.056 174.932 110.263C177.769 111.41 180.274 113.311 182.447 115.967C184.62 118.623 186.37 122.124 187.698 126.47C189.026 130.755 189.69 136.067 189.69 142.405C189.69 148.743 189.026 154.085 187.698 158.431C186.37 162.717 184.62 166.187 182.447 168.843C180.274 171.499 177.769 173.431 174.932 174.638C172.095 175.785 169.198 176.358 166.24 176.358C163.222 176.358 160.294 175.785 157.457 174.638C154.681 173.431 152.206 171.499 150.033 168.843C147.86 166.187 146.109 162.717 144.781 158.431C143.454 154.085 142.79 148.743 142.79 142.405ZM150.667 142.405C150.667 151.58 151.964 158.552 154.56 163.32C157.155 168.089 161.049 170.473 166.24 170.473C171.431 170.473 175.324 168.089 177.92 163.32C180.515 158.552 181.813 151.58 181.813 142.405C181.813 133.23 180.515 126.258 177.92 121.49C175.324 116.721 171.431 114.337 166.24 114.337C161.049 114.337 157.155 116.721 154.56 121.49C151.964 126.258 150.667 133.23 150.667 142.405ZM240.907 109.81L223.342 175H213.02L195.183 109.81H203.151L218.272 169.477L233.845 109.81H240.907ZM337.953 116.51H322.017V175H314.321V116.51H298.567V109.81H337.953V116.51ZM355.573 109.81V175H347.877V109.81H355.573ZM370.028 142.405C370.028 136.067 370.692 130.755 372.02 126.47C373.348 122.124 375.098 118.623 377.271 115.967C379.444 113.311 381.919 111.41 384.696 110.263C387.533 109.056 390.46 108.452 393.478 108.452C396.496 108.452 399.394 109.056 402.17 110.263C405.007 111.41 407.512 113.311 409.685 115.967C411.858 118.623 413.609 122.124 414.937 126.47C416.264 130.755 416.928 136.067 416.928 142.405C416.928 148.743 416.264 154.085 414.937 158.431C413.609 162.717 411.858 166.187 409.685 168.843C407.512 171.499 405.007 173.431 402.17 174.638C399.333 175.785 396.436 176.358 393.478 176.358C390.46 176.358 387.533 175.785 384.696 174.638C381.919 173.431 379.444 171.499 377.271 168.843C375.098 166.187 373.348 162.717 372.02 158.431C370.692 154.085 370.028 148.743 370.028 142.405ZM377.905 142.405C377.905 151.58 379.203 158.552 381.798 163.32C384.394 168.089 388.287 170.473 393.478 170.473C398.669 170.473 402.562 168.089 405.158 163.32C407.754 158.552 409.051 151.58 409.051 142.405C409.051 133.23 407.754 126.258 405.158 121.49C402.562 116.721 398.669 114.337 393.478 114.337C388.287 114.337 384.394 116.721 381.798 121.49C379.203 126.258 377.905 133.23 377.905 142.405ZM469.552 109.81V175H459.592L438.405 119.951V175H431.433V109.81H441.665L462.761 164.044V109.81H469.552ZM503.377 114.428C499.996 114.428 497.22 115.243 495.047 116.872C492.874 118.442 491.787 120.947 491.787 124.387C491.787 125.957 491.998 127.345 492.421 128.552C492.844 129.759 493.538 130.846 494.503 131.812C495.53 132.777 496.858 133.713 498.487 134.618C500.117 135.463 502.139 136.339 504.554 137.244C506.908 138.15 509.141 139.146 511.254 140.232C513.366 141.319 515.207 142.646 516.777 144.216C518.406 145.785 519.674 147.687 520.579 149.92C521.545 152.153 522.028 154.87 522.028 158.069C522.028 160.544 521.515 162.898 520.489 165.131C519.523 167.364 518.135 169.326 516.324 171.016C514.574 172.646 512.461 173.944 509.986 174.909C507.511 175.875 504.795 176.358 501.837 176.358C498.819 176.358 496.163 175.966 493.87 175.181C491.636 174.457 489.705 173.491 488.075 172.284C486.445 171.016 485.087 169.598 484.001 168.028C482.974 166.459 482.16 164.829 481.556 163.139L488.075 160.694C488.498 161.902 489.041 163.079 489.705 164.226C490.429 165.372 491.335 166.399 492.421 167.304C493.508 168.149 494.805 168.843 496.314 169.386C497.884 169.93 499.755 170.201 501.928 170.201C503.377 170.201 504.825 170.02 506.274 169.658C507.723 169.236 509.02 168.572 510.167 167.666C511.374 166.761 512.34 165.553 513.065 164.044C513.789 162.535 514.151 160.694 514.151 158.521C514.151 156.228 513.849 154.326 513.246 152.817C512.702 151.308 511.797 149.98 510.529 148.833C509.322 147.687 507.723 146.66 505.731 145.755C503.739 144.85 501.354 143.823 498.578 142.677C493.689 140.685 490.067 138.27 487.713 135.433C485.419 132.596 484.272 129.095 484.272 124.93C484.272 122.637 484.695 120.494 485.54 118.502C486.385 116.45 487.622 114.699 489.252 113.251C490.882 111.742 492.844 110.565 495.137 109.719C497.491 108.874 500.177 108.452 503.195 108.452C508.326 108.452 512.34 109.508 515.238 111.621C518.135 113.673 520.368 116.48 521.938 120.041L515.238 122.395C514.211 119.86 512.793 117.898 510.982 116.51C509.171 115.122 506.636 114.428 503.377 114.428Z" fill="white" fill-opacity="0.9"/>
<path d="M323.792 72.7041C316.488 72.7041 310.784 70.9838 306.679 67.5432C302.997 64.4648 301.156 60.5112 301.156 55.6823C301.156 50.3102 303.39 45.4813 307.857 41.1956C312.806 36.4271 319.325 33.6505 327.413 32.8658C326.75 31.9 326.176 30.8739 325.693 29.7874C324.003 29.727 322.373 29.6063 320.804 29.4252C319.235 29.1838 317.756 28.9121 316.367 28.6103C311.357 27.4031 307.464 25.4716 304.688 22.8157C302.152 20.3409 300.885 17.6548 300.885 14.7575C300.885 11.498 302.454 8.75154 305.593 6.51818C308.732 4.40554 312.685 3.34923 317.454 3.34923C319.748 3.34923 322.072 3.62085 324.426 4.1641C326.78 4.64699 329.134 5.46186 331.488 6.60872C331.669 6.66908 331.759 6.85017 331.759 7.15197C331.759 7.75558 331.488 7.93667 330.945 7.69522C326.538 5.58258 322.222 4.52626 317.997 4.52626C314.255 4.52626 311.267 5.46186 309.034 7.33305C306.8 9.20425 305.684 11.6489 305.684 14.6669C305.684 17.3832 306.679 19.8882 308.671 22.1819C310.965 24.7171 314.074 26.4373 317.997 27.3428C319.144 27.5842 320.321 27.7955 321.528 27.9766C322.736 28.1576 323.973 28.2784 325.24 28.3387C324.999 27.3729 324.878 26.2563 324.878 24.9887C324.878 20.703 326.599 16.8399 330.039 13.3993C334.144 9.29479 339.969 6.60872 347.514 5.34114C348.298 5.22042 349.053 5.12988 349.777 5.06952C350.562 5.00915 351.316 4.97897 352.041 4.97897C355.3 4.97897 357.956 5.67312 360.008 7.06143C362.061 8.38937 363.087 10.17 363.087 12.4034C363.087 15.9043 360.642 19.3751 355.753 22.8157C349.536 27.1013 340.844 29.4252 329.677 29.7874C329.737 30.7532 329.979 31.6888 330.401 32.5942C331.428 32.5338 332.454 32.5338 333.48 32.5942C334.506 32.5942 335.532 32.6244 336.558 32.6847C338.731 32.8658 339.818 33.6807 339.818 35.1293C339.818 36.5176 338.641 37.2118 336.287 37.2118C333.208 37.2118 330.613 36.1555 328.5 34.0428C322.947 34.9483 318.39 37.755 314.828 42.4632C311.629 46.8696 310.03 51.6683 310.03 56.8593C310.03 61.0846 311.146 64.495 313.38 67.0905C315.794 70.0482 319.265 71.5271 323.792 71.5271C326.689 71.5271 329.436 70.9235 332.031 69.7162C334.627 68.509 336.951 66.9396 339.003 65.0081C341.055 63.0765 342.655 61.0544 343.802 58.9418C345.009 56.8292 345.612 54.8674 345.612 53.0566C345.612 51.3665 344.979 49.9782 343.711 48.8917C342.504 47.7448 340.512 47.1714 337.735 47.1714C335.864 47.1714 333.842 47.6241 331.669 48.5295C329.556 49.3746 327.504 50.4912 325.512 51.8795C323.52 53.2075 321.8 54.5958 320.351 56.0445C318.903 57.4931 317.937 58.7607 317.454 59.8472C317.333 60.2094 317.092 60.2999 316.73 60.1188C316.367 59.9378 316.247 59.6661 316.367 59.304C317.031 57.7346 318.118 56.135 319.627 54.5053C321.136 52.8755 322.917 51.3363 324.969 49.8876C327.021 48.439 329.224 47.2921 331.578 46.447C333.932 45.5416 336.317 45.0889 338.731 45.0889C343.319 45.0889 346.639 45.9038 348.691 47.5335C350.743 49.1633 351.769 51.125 351.769 53.4188C351.769 55.471 351.075 57.6138 349.687 59.8472C348.298 62.0806 346.337 64.1932 343.802 66.1851C341.327 68.1167 338.369 69.6861 334.928 70.8933C331.548 72.1005 327.836 72.7041 323.792 72.7041ZM329.677 28.2482C339.093 27.7653 346.97 25.3207 353.308 20.9143C358.439 17.2926 361.004 14.1539 361.004 11.498C361.004 8.78172 358.801 7.4236 354.395 7.4236C348.419 7.4236 342.655 9.8984 337.101 14.848C332.514 18.8922 330.039 23.3589 329.677 28.2482ZM221.838 189.758C220.088 189.758 218.609 189.396 217.402 188.672C215.772 187.766 214.957 186.348 214.957 184.416C214.957 182.726 215.5 181.217 216.587 179.889C217.794 178.501 219.182 177.807 220.752 177.807C221.898 177.807 222.894 178.229 223.739 179.074C224.464 179.919 224.826 180.764 224.826 181.61C224.826 183.119 224.253 184.356 223.106 185.322C222.14 186.227 221.053 186.68 219.846 186.68C218.699 186.68 217.703 186.257 216.858 185.412C217.22 186.74 218.458 187.404 220.57 187.404C223.77 187.404 227.572 185.261 231.979 180.976C233.608 179.406 235.359 177.505 237.23 175.272C239.041 173.099 240.942 170.563 242.934 167.666C244.262 165.735 245.56 163.833 246.828 161.962C248.095 160.03 249.393 158.099 250.721 156.167C246.314 149.407 244.111 143.039 244.111 137.063C244.111 133.622 244.896 130.846 246.465 128.733C248.095 126.621 250.178 125.564 252.713 125.564C257.421 125.564 262.34 128.824 267.471 135.343C273.266 129.367 279.181 124.297 285.217 120.132C293.306 114.518 299.976 111.711 305.227 111.711C307.34 111.711 308.396 112.164 308.396 113.07C308.396 113.311 308.305 113.613 308.124 113.975C294.543 138.3 286.938 154.809 285.308 163.501C285.187 164.346 285.066 165.131 284.946 165.855C284.885 166.58 284.855 167.244 284.855 167.847C284.855 171.65 286.394 173.551 289.473 173.551C292.611 173.551 297.018 167.636 302.692 155.805C302.933 155.202 303.265 154.839 303.688 154.719H303.778C304.02 154.719 304.14 154.93 304.14 155.352C304.14 155.715 303.99 156.198 303.688 156.801C301.998 160.181 300.639 162.867 299.613 164.859C298.648 166.851 297.984 168.119 297.621 168.662C295.931 171.318 294.241 173.28 292.551 174.547C290.861 175.815 289.201 176.449 287.571 176.449C285.519 176.449 283.557 175.664 281.686 174.095C279.332 172.042 278.034 169.175 277.793 165.493C276.163 155.594 272.572 147.143 267.018 140.141C265.087 142.194 263.035 144.578 260.862 147.294C258.749 150.011 256.485 153.059 254.071 156.439C256.848 160.845 260.016 164.92 263.578 168.662C267.199 172.404 271.213 175.785 275.62 178.803C276.042 179.044 276.254 179.346 276.254 179.708C276.254 180.191 276.073 180.432 275.71 180.432C275.529 180.432 275.258 180.342 274.895 180.161C273.205 179.135 271.455 177.897 269.644 176.449C267.833 175.06 265.932 173.431 263.94 171.559C261.707 169.507 259.624 167.425 257.693 165.312C255.821 163.139 254.071 160.936 252.441 158.703C248.337 164.497 245.077 169.054 242.663 172.374C240.309 175.694 238.8 177.777 238.136 178.622C233.186 184.778 228.931 188.31 225.369 189.215C224.222 189.577 223.045 189.758 221.838 189.758ZM278.427 159.065C278.789 157.495 279.302 155.866 279.966 154.175C280.69 152.425 281.565 150.644 282.592 148.833C287.783 139.598 293.004 131.148 298.255 123.482C298.859 122.637 299.161 121.882 299.161 121.218C299.161 120.434 298.587 120.041 297.44 120.041C293.939 120.041 288.96 122.275 282.501 126.741C279.905 128.552 277.521 130.393 275.348 132.264C273.175 134.075 271.153 135.916 269.282 137.787C273.386 143.944 276.435 151.037 278.427 159.065ZM252.441 153.723C254.795 150.524 256.998 147.596 259.051 144.94C261.163 142.284 263.155 139.93 265.026 137.878C261.224 133.834 257.843 131.812 254.886 131.812C253.075 131.812 251.656 132.627 250.63 134.256C249.544 135.946 249.001 138.119 249.001 140.775C249.001 144.94 250.147 149.256 252.441 153.723Z" fill="#45E871"/>
</svg>
