<svg width="180" height="31" viewBox="0 0 180 31" fill="none" xmlns="http://www.w3.org/2000/svg">
<mask id="path-1-inside-1_936_1345" fill="white">
<path fill-rule="evenodd" clip-rule="evenodd" d="M169.667 0H11.6667V3H5V27.6667H11.6667V31H169.667V27.6667H177V3H169.667V0Z"/>
</mask>
<path d="M11.6667 0V-1H10.6667V0H11.6667ZM169.667 0H170.667V-1H169.667V0ZM11.6667 3V4H12.6667V3H11.6667ZM5 3V2H4V3H5ZM5 27.6667H4V28.6667H5V27.6667ZM11.6667 27.6667H12.6667V26.6667H11.6667V27.6667ZM11.6667 31H10.6667V32H11.6667V31ZM169.667 31V32H170.667V31H169.667ZM169.667 27.6667V26.6667H168.667V27.6667H169.667ZM177 27.6667V28.6667H178V27.6667H177ZM177 3H178V2H177V3ZM169.667 3H168.667V4H169.667V3ZM11.6667 1H169.667V-1H11.6667V1ZM12.6667 3V0H10.6667V3H12.6667ZM5 4H11.6667V2H5V4ZM6 27.6667V3H4V27.6667H6ZM11.6667 26.6667H5V28.6667H11.6667V26.6667ZM12.6667 31V27.6667H10.6667V31H12.6667ZM169.667 30H11.6667V32H169.667V30ZM168.667 27.6667V31H170.667V27.6667H168.667ZM177 26.6667H169.667V28.6667H177V26.6667ZM176 3V27.6667H178V3H176ZM169.667 4H177V2H169.667V4ZM168.667 0V3H170.667V0H168.667Z" fill="#45E871" mask="url(#path-1-inside-1_936_1345)"/>
<path d="M20.72 13.68C20.72 12.96 20.16 12.4 19.44 12.4H18.16C17.44 12.4 16.88 12.976 16.88 13.68V19.104C16.88 19.808 17.456 20.384 18.16 20.384H19.44C20.144 20.384 20.72 19.808 20.72 19.104V18.224H22.32V19.104C22.32 20.688 21.04 22 19.44 22H18.16C16.576 22 15.28 20.688 15.28 19.104V13.68C15.28 12.08 16.576 10.8 18.16 10.8H19.44C21.04 10.8 22.32 12.08 22.32 13.68V14.56H20.72V13.68ZM26.4738 10.8V15.28H30.3138V10.8H31.9138V22H30.3138V16.88H26.4738V22H24.8738V10.8H26.4738ZM38.6275 20.384C39.3315 20.384 39.9075 19.808 39.9075 19.104V13.68C39.9075 12.96 39.3475 12.4 38.6275 12.4H37.3475C36.6275 12.4 36.0675 12.976 36.0675 13.68V19.104C36.0675 19.808 36.6435 20.384 37.3475 20.384H38.6275ZM34.4675 19.104V13.68C34.4675 12.08 35.7635 10.8 37.3475 10.8H38.6275C40.2275 10.8 41.5075 12.08 41.5075 13.68V19.104C41.5075 20.688 40.2275 22 38.6275 22H37.3475C35.7635 22 34.4675 20.688 34.4675 19.104ZM48.2213 20.384C48.9253 20.384 49.5013 19.808 49.5013 19.104V13.68C49.5013 12.96 48.9413 12.4 48.2213 12.4H46.9413C46.2213 12.4 45.6613 12.976 45.6613 13.68V19.104C45.6613 19.808 46.2373 20.384 46.9413 20.384H48.2213ZM44.0613 19.104V13.68C44.0613 12.08 45.3573 10.8 46.9413 10.8H48.2213C49.8213 10.8 51.1013 12.08 51.1013 13.68V19.104C51.1013 20.688 49.8213 22 48.2213 22H46.9413C45.3573 22 44.0613 20.688 44.0613 19.104ZM53.655 18.384H55.255V19.024C55.255 19.776 55.879 20.4 56.631 20.4H57.703C58.519 20.4 59.095 19.888 59.095 19.184C59.095 16.976 53.815 16.496 53.815 13.456C53.815 11.888 55.047 10.8 56.791 10.8H57.543C59.191 10.8 60.535 12.128 60.535 13.776V14.256H58.935V13.776C58.935 13.008 58.311 12.4 57.543 12.4H56.791C55.927 12.4 55.415 12.8 55.415 13.456C55.415 15.152 60.695 15.808 60.695 19.184C60.695 20.784 59.399 22 57.703 22H56.631C54.983 22 53.655 20.672 53.655 19.024V18.384ZM70.2888 10.8V12.4H64.8488V15.328H69.6488V16.928H64.8488V20.4H70.2888V22H63.2488V10.8H70.2888ZM84.0363 10.8V20.4H89.4763V22H82.4363V10.8H84.0363ZM99.07 10.8V12.4H93.63V15.328H98.43V16.928H93.63V20.4H99.07V22H92.03V10.8H99.07ZM104.664 15.968H108.664V19.104C108.664 20.688 107.384 22 105.784 22H104.504C102.92 22 101.624 20.688 101.624 19.104V13.68C101.624 12.08 102.92 10.8 104.504 10.8H105.784C107.384 10.8 108.664 12.08 108.664 13.68V14.56H107.064V13.68C107.064 12.96 106.504 12.4 105.784 12.4H104.504C103.784 12.4 103.224 12.976 103.224 13.68V19.104C103.224 19.808 103.8 20.384 104.504 20.384H105.784C106.488 20.384 107.064 19.808 107.064 19.104V17.568H104.664V15.968ZM118.258 10.8V12.4H112.818V15.328H117.618V16.928H112.818V20.4H118.258V22H111.218V10.8H118.258ZM126.251 10.8H127.851V22H125.531L122.411 13.488V22H120.811V10.8H123.131L126.251 19.312V10.8ZM134.565 10.8C136.149 10.8 137.445 12.08 137.445 13.68V19.104C137.445 20.688 136.149 22 134.565 22H130.405V10.8H134.565ZM132.005 20.384H134.565C135.269 20.384 135.845 19.808 135.845 19.104V13.68C135.845 12.976 135.285 12.4 134.565 12.4H132.005V20.384ZM141.599 22H139.999V18.32L142.719 10.8H144.319L147.039 18.32V22H145.439V19.408H141.599V22ZM141.887 17.808H145.151L143.535 13.328H143.503L141.887 17.808ZM156.633 22H154.873L152.841 17.52H151.193V22H149.593V10.8H153.753C155.353 10.8 156.633 12.08 156.633 13.68V14.64C156.633 15.968 155.753 17.072 154.537 17.408L156.633 22ZM151.193 15.92H153.753C154.473 15.92 155.033 15.36 155.033 14.64V13.68C155.033 12.96 154.473 12.4 153.753 12.4H151.193V15.92ZM161.906 22V18.016L159.186 14.64V10.8H160.786V14.064L162.674 16.416H162.706L164.626 13.904V10.8H166.226V14.448L163.506 18.016V22H161.906Z" fill="#45E871"/>
</svg>
