<svg width="146" height="31" viewBox="0 0 146 31" fill="none" xmlns="http://www.w3.org/2000/svg">
<mask id="path-1-inside-1_936_1269" fill="white">
<path fill-rule="evenodd" clip-rule="evenodd" d="M139.988 0H10.4651V3H5V27.6667H10.4651V31H139.988V27.6667H146V3H139.988V0Z"/>
</mask>
<path d="M10.4651 0V-1H9.46514V0H10.4651ZM139.988 0H140.988V-1H139.988V0ZM10.4651 3V4H11.4651V3H10.4651ZM5 3V2H4V3H5ZM5 27.6667H4V28.6667H5V27.6667ZM10.4651 27.6667H11.4651V26.6667H10.4651V27.6667ZM10.4651 31H9.46514V32H10.4651V31ZM139.988 31V32H140.988V31H139.988ZM139.988 27.6667V26.6667H138.988V27.6667H139.988ZM146 27.6667V28.6667H147V27.6667H146ZM146 3H147V2H146V3ZM139.988 3H138.988V4H139.988V3ZM10.4651 1H139.988V-1H10.4651V1ZM11.4651 3V0H9.46514V3H11.4651ZM5 4H10.4651V2H5V4ZM6 27.6667V3H4V27.6667H6ZM10.4651 26.6667H5V28.6667H10.4651V26.6667ZM11.4651 31V27.6667H9.46514V31H11.4651ZM139.988 30H10.4651V32H139.988V30ZM138.988 27.6667V31H140.988V27.6667H138.988ZM146 26.6667H139.988V28.6667H146V26.6667ZM145 3V27.6667H147V3H145ZM139.988 4H146V2H139.988V4ZM138.988 0V3H140.988V0H138.988Z" fill="#45E871" mask="url(#path-1-inside-1_936_1269)"/>
<path d="M20.72 13.68C20.72 12.96 20.16 12.4 19.44 12.4H18.16C17.44 12.4 16.88 12.976 16.88 13.68V19.104C16.88 19.808 17.456 20.384 18.16 20.384H19.44C20.144 20.384 20.72 19.808 20.72 19.104V18.224H22.32V19.104C22.32 20.688 21.04 22 19.44 22H18.16C16.576 22 15.28 20.688 15.28 19.104V13.68C15.28 12.08 16.576 10.8 18.16 10.8H19.44C21.04 10.8 22.32 12.08 22.32 13.68V14.56H20.72V13.68ZM26.4738 10.8V15.28H30.3138V10.8H31.9138V22H30.3138V16.88H26.4738V22H24.8738V10.8H26.4738ZM38.6275 20.384C39.3315 20.384 39.9075 19.808 39.9075 19.104V13.68C39.9075 12.96 39.3475 12.4 38.6275 12.4H37.3475C36.6275 12.4 36.0675 12.976 36.0675 13.68V19.104C36.0675 19.808 36.6435 20.384 37.3475 20.384H38.6275ZM34.4675 19.104V13.68C34.4675 12.08 35.7635 10.8 37.3475 10.8H38.6275C40.2275 10.8 41.5075 12.08 41.5075 13.68V19.104C41.5075 20.688 40.2275 22 38.6275 22H37.3475C35.7635 22 34.4675 20.688 34.4675 19.104ZM48.2213 20.384C48.9253 20.384 49.5013 19.808 49.5013 19.104V13.68C49.5013 12.96 48.9413 12.4 48.2213 12.4H46.9413C46.2213 12.4 45.6613 12.976 45.6613 13.68V19.104C45.6613 19.808 46.2373 20.384 46.9413 20.384H48.2213ZM44.0613 19.104V13.68C44.0613 12.08 45.3573 10.8 46.9413 10.8H48.2213C49.8213 10.8 51.1013 12.08 51.1013 13.68V19.104C51.1013 20.688 49.8213 22 48.2213 22H46.9413C45.3573 22 44.0613 20.688 44.0613 19.104ZM53.655 18.384H55.255V19.024C55.255 19.776 55.879 20.4 56.631 20.4H57.703C58.519 20.4 59.095 19.888 59.095 19.184C59.095 16.976 53.815 16.496 53.815 13.456C53.815 11.888 55.047 10.8 56.791 10.8H57.543C59.191 10.8 60.535 12.128 60.535 13.776V14.256H58.935V13.776C58.935 13.008 58.311 12.4 57.543 12.4H56.791C55.927 12.4 55.415 12.8 55.415 13.456C55.415 15.152 60.695 15.808 60.695 19.184C60.695 20.784 59.399 22 57.703 22H56.631C54.983 22 53.655 20.672 53.655 19.024V18.384ZM70.2888 10.8V12.4H64.8488V15.328H69.6488V16.928H64.8488V20.4H70.2888V22H63.2488V10.8H70.2888ZM85.5243 17.488L84.0363 14.32V22H82.4363V10.8H84.0363L85.9563 14.976L87.8763 10.8H89.4763V22H87.8763V14.32L86.3883 17.488H85.5243ZM93.63 22H92.03V18.32L94.75 10.8H96.35L99.07 18.32V22H97.47V19.408H93.63V22ZM93.918 17.808H97.182L95.566 13.328H95.534L93.918 17.808ZM101.624 18.384H103.224V19.024C103.224 19.776 103.848 20.4 104.6 20.4H105.672C106.488 20.4 107.064 19.888 107.064 19.184C107.064 16.976 101.784 16.496 101.784 13.456C101.784 11.888 103.016 10.8 104.76 10.8H105.512C107.16 10.8 108.504 12.128 108.504 13.776V14.256H106.904V13.776C106.904 13.008 106.28 12.4 105.512 12.4H104.76C103.896 12.4 103.384 12.8 103.384 13.456C103.384 15.152 108.664 15.808 108.664 19.184C108.664 20.784 107.368 22 105.672 22H104.6C102.952 22 101.624 20.672 101.624 19.024V18.384ZM111.218 10.8H118.258V12.4H115.538V22H113.938V12.4H111.218V10.8ZM127.851 10.8V12.4H122.411V15.328H127.211V16.928H122.411V20.4H127.851V22H120.811V10.8H127.851ZM137.445 22H135.685L133.653 17.52H132.005V22H130.405V10.8H134.565C136.165 10.8 137.445 12.08 137.445 13.68V14.64C137.445 15.968 136.565 17.072 135.349 17.408L137.445 22ZM132.005 15.92H134.565C135.285 15.92 135.845 15.36 135.845 14.64V13.68C135.845 12.96 135.285 12.4 134.565 12.4H132.005V15.92Z" fill="#45E871"/>
</svg>
