<svg width="148" height="31" viewBox="0 0 148 31" fill="none" xmlns="http://www.w3.org/2000/svg">
<mask id="path-1-inside-1_936_1179" fill="white">
<path fill-rule="evenodd" clip-rule="evenodd" d="M141.903 0H10.5427V3H5V27.6667H10.5427V31H141.903V27.6667H148V3H141.903V0Z"/>
</mask>
<path d="M10.5427 0V-1H9.54265V0H10.5427ZM141.903 0H142.903V-1H141.903V0ZM10.5427 3V4H11.5427V3H10.5427ZM5 3V2H4V3H5ZM5 27.6667H4V28.6667H5V27.6667ZM10.5427 27.6667H11.5427V26.6667H10.5427V27.6667ZM10.5427 31H9.54265V32H10.5427V31ZM141.903 31V32H142.903V31H141.903ZM141.903 27.6667V26.6667H140.903V27.6667H141.903ZM148 27.6667V28.6667H149V27.6667H148ZM148 3H149V2H148V3ZM141.903 3H140.903V4H141.903V3ZM10.5427 1H141.903V-1H10.5427V1ZM11.5427 3V0H9.54265V3H11.5427ZM5 4H10.5427V2H5V4ZM6 27.6667V3H4V27.6667H6ZM10.5427 26.6667H5V28.6667H10.5427V26.6667ZM11.5427 31V27.6667H9.54265V31H11.5427ZM141.903 30H10.5427V32H141.903V30ZM140.903 27.6667V31H142.903V27.6667H140.903ZM148 26.6667H141.903V28.6667H148V26.6667ZM147 3V27.6667H149V3H147ZM141.903 4H148V2H141.903V4ZM140.903 0V3H142.903V0H140.903Z" fill="#45E871" mask="url(#path-1-inside-1_936_1179)"/>
<path d="M20.72 13.68C20.72 12.96 20.16 12.4 19.44 12.4H18.16C17.44 12.4 16.88 12.976 16.88 13.68V19.104C16.88 19.808 17.456 20.384 18.16 20.384H19.44C20.144 20.384 20.72 19.808 20.72 19.104V18.224H22.32V19.104C22.32 20.688 21.04 22 19.44 22H18.16C16.576 22 15.28 20.688 15.28 19.104V13.68C15.28 12.08 16.576 10.8 18.16 10.8H19.44C21.04 10.8 22.32 12.08 22.32 13.68V14.56H20.72V13.68ZM26.4738 10.8V15.28H30.3138V10.8H31.9138V22H30.3138V16.88H26.4738V22H24.8738V10.8H26.4738ZM38.6275 20.384C39.3315 20.384 39.9075 19.808 39.9075 19.104V13.68C39.9075 12.96 39.3475 12.4 38.6275 12.4H37.3475C36.6275 12.4 36.0675 12.976 36.0675 13.68V19.104C36.0675 19.808 36.6435 20.384 37.3475 20.384H38.6275ZM34.4675 19.104V13.68C34.4675 12.08 35.7635 10.8 37.3475 10.8H38.6275C40.2275 10.8 41.5075 12.08 41.5075 13.68V19.104C41.5075 20.688 40.2275 22 38.6275 22H37.3475C35.7635 22 34.4675 20.688 34.4675 19.104ZM48.2213 20.384C48.9253 20.384 49.5013 19.808 49.5013 19.104V13.68C49.5013 12.96 48.9413 12.4 48.2213 12.4H46.9413C46.2213 12.4 45.6613 12.976 45.6613 13.68V19.104C45.6613 19.808 46.2373 20.384 46.9413 20.384H48.2213ZM44.0613 19.104V13.68C44.0613 12.08 45.3573 10.8 46.9413 10.8H48.2213C49.8213 10.8 51.1013 12.08 51.1013 13.68V19.104C51.1013 20.688 49.8213 22 48.2213 22H46.9413C45.3573 22 44.0613 20.688 44.0613 19.104ZM53.655 18.384H55.255V19.024C55.255 19.776 55.879 20.4 56.631 20.4H57.703C58.519 20.4 59.095 19.888 59.095 19.184C59.095 16.976 53.815 16.496 53.815 13.456C53.815 11.888 55.047 10.8 56.791 10.8H57.543C59.191 10.8 60.535 12.128 60.535 13.776V14.256H58.935V13.776C58.935 13.008 58.311 12.4 57.543 12.4H56.791C55.927 12.4 55.415 12.8 55.415 13.456C55.415 15.152 60.695 15.808 60.695 19.184C60.695 20.784 59.399 22 57.703 22H56.631C54.983 22 53.655 20.672 53.655 19.024V18.384ZM70.2888 10.8V12.4H64.8488V15.328H69.6488V16.928H64.8488V20.4H70.2888V22H63.2488V10.8H70.2888ZM87.8763 10.8H89.4763V22H87.1563L84.0363 13.488V22H82.4363V10.8H84.7563L87.8763 19.312V10.8ZM96.19 20.384C96.894 20.384 97.47 19.808 97.47 19.104V13.68C97.47 12.96 96.91 12.4 96.19 12.4H94.91C94.19 12.4 93.63 12.976 93.63 13.68V19.104C93.63 19.808 94.206 20.384 94.91 20.384H96.19ZM92.03 19.104V13.68C92.03 12.08 93.326 10.8 94.91 10.8H96.19C97.79 10.8 99.07 12.08 99.07 13.68V19.104C99.07 20.688 97.79 22 96.19 22H94.91C93.326 22 92.03 20.688 92.03 19.104ZM107.064 10.8H108.664V14.48L105.944 22H104.344L101.624 14.48V10.8H103.224V14.192L105.128 19.472H105.16L107.064 14.192V10.8ZM111.218 10.8H118.258V12.4H115.538V20.4H118.258V22H111.218V20.4H113.938V12.4H111.218V10.8ZM126.251 13.68C126.251 12.96 125.691 12.4 124.971 12.4H123.691C122.971 12.4 122.411 12.976 122.411 13.68V19.104C122.411 19.808 122.987 20.384 123.691 20.384H124.971C125.675 20.384 126.251 19.808 126.251 19.104V18.224H127.851V19.104C127.851 20.688 126.571 22 124.971 22H123.691C122.107 22 120.811 20.688 120.811 19.104V13.68C120.811 12.08 122.107 10.8 123.691 10.8H124.971C126.571 10.8 127.851 12.08 127.851 13.68V14.56H126.251V13.68ZM137.445 10.8V12.4H132.005V15.328H136.805V16.928H132.005V20.4H137.445V22H130.405V10.8H137.445Z" fill="#45E871"/>
</svg>
