<svg width="19" height="19" viewBox="0 0 19 19" fill="none" xmlns="http://www.w3.org/2000/svg">
<path d="M12.5874 8.67633C13.1474 8.72966 13.5408 8.92299 13.7674 9.25633C13.9941 9.57633 14.0874 9.95633 14.0474 10.3963C13.9941 10.903 13.8141 11.3897 13.5074 11.8563C13.2141 12.3097 12.9008 12.763 12.5674 13.2163C12.2341 13.6697 11.9341 14.123 11.6674 14.5763C11.4008 15.0163 11.2674 15.4763 11.2674 15.9563C11.2674 16.223 11.3408 16.4497 11.4874 16.6363C11.6474 16.823 11.8608 16.9163 12.1274 16.9163C12.3808 16.9163 12.5874 16.8097 12.7474 16.5963C12.9208 16.383 13.0808 16.1163 13.2274 15.7963C13.3741 15.4763 13.5208 15.1297 13.6674 14.7563C13.8274 14.3697 14.0141 14.0163 14.2274 13.6963C14.4408 13.3763 14.7008 13.1097 15.0074 12.8963C15.3141 12.683 15.6941 12.5763 16.1474 12.5763C16.5474 12.5763 16.8808 12.663 17.1474 12.8363C17.4141 13.0097 17.6274 13.2497 17.7874 13.5563C17.9474 13.8497 18.0608 14.1963 18.1274 14.5963C18.1941 14.983 18.2274 15.3897 18.2274 15.8163C18.2274 16.683 18.0674 17.363 17.7474 17.8563C17.4408 18.363 17.0541 18.6163 16.5874 18.6163C16.3208 18.6163 16.0541 18.5163 15.7874 18.3163C15.5208 18.1297 15.3874 17.843 15.3874 17.4563C15.3874 17.083 15.4941 16.7497 15.7074 16.4563C15.9208 16.1763 16.1474 15.903 16.3874 15.6363C16.6408 15.3697 16.8741 15.103 17.0874 14.8363C17.3008 14.5563 17.4074 14.243 17.4074 13.8963C17.4074 13.523 17.2874 13.243 17.0474 13.0563C16.8074 12.8563 16.5141 12.7563 16.1674 12.7563C15.8208 12.7697 15.5741 12.8763 15.4274 13.0763C15.2808 13.2763 15.1741 13.5297 15.1074 13.8363C15.0541 14.143 15.0074 14.483 14.9674 14.8563C14.9274 15.2163 14.8474 15.563 14.7274 15.8963C14.6208 16.2163 14.4408 16.4963 14.1874 16.7363C13.9341 16.9897 13.5541 17.1497 13.0474 17.2163C12.9674 17.2297 12.8874 17.2363 12.8074 17.2363C12.7408 17.2497 12.6741 17.2563 12.6074 17.2563C12.2474 17.2563 11.9408 17.1963 11.6874 17.0763C11.4474 16.9563 11.2141 16.823 10.9874 16.6763C10.7741 16.5297 10.5541 16.3963 10.3274 16.2763C10.1141 16.1563 9.86077 16.0963 9.56743 16.0963C9.10077 16.0963 8.64077 16.1697 8.18743 16.3163C7.7341 16.463 7.2741 16.5363 6.80743 16.5363C6.14077 16.5363 5.5141 16.443 4.92743 16.2563C4.3541 16.083 3.84743 15.823 3.40743 15.4763C2.98077 15.1163 2.64077 14.6763 2.38743 14.1563C2.14743 13.623 2.02743 13.003 2.02743 12.2963C2.02743 11.7097 2.14743 11.1897 2.38743 10.7363C2.62743 10.283 2.88743 9.88299 3.16743 9.53633C3.44743 9.18966 3.70743 8.89633 3.94743 8.65633C4.18743 8.41633 4.30743 8.22299 4.30743 8.07633C4.30743 7.83633 4.12077 7.71633 3.74743 7.71633C3.5741 7.71633 3.40077 7.73633 3.22743 7.77633C3.0541 7.81633 2.82743 7.83633 2.54743 7.83633C2.02743 7.83633 1.62743 7.70299 1.34743 7.43633C1.08077 7.16966 0.947434 6.80299 0.947434 6.33633C0.947434 5.61633 1.0941 4.92299 1.38743 4.25633C1.68077 3.57633 2.0741 2.98299 2.56743 2.47633C3.06077 1.96966 3.62077 1.56299 4.24743 1.25633C4.88743 0.949661 5.54743 0.796328 6.22743 0.796328C6.6541 0.796328 7.0141 0.862994 7.30743 0.996328C7.60077 1.12966 7.86743 1.28299 8.10743 1.45633C8.34743 1.61633 8.5741 1.76299 8.78743 1.89633C9.0141 2.02966 9.2741 2.09633 9.56743 2.09633C9.8341 2.09633 10.0408 2.03633 10.1874 1.91633C10.3341 1.79633 10.4741 1.66299 10.6074 1.51633C10.7541 1.35633 10.9141 1.21633 11.0874 1.09633C11.2741 0.976327 11.5341 0.916327 11.8674 0.916327C12.3074 0.916327 12.6808 1.06299 12.9874 1.35633C13.2941 1.64966 13.5408 2.02966 13.7274 2.49633C13.9274 2.94966 14.0741 3.46299 14.1674 4.03633C14.2608 4.59633 14.3074 5.14299 14.3074 5.67633C14.3074 6.27633 14.1741 6.74966 13.9074 7.09633C13.6541 7.42966 13.2941 7.59633 12.8274 7.59633C12.4408 7.59633 12.1008 7.49633 11.8074 7.29633C11.5274 7.08299 11.3874 6.74299 11.3874 6.27633C11.3874 5.95633 11.4608 5.63633 11.6074 5.31633C11.7674 4.99633 11.9408 4.66966 12.1274 4.33633C12.3274 3.98966 12.5008 3.62966 12.6474 3.25633C12.8074 2.88299 12.8874 2.48299 12.8874 2.05633C12.8874 1.82966 12.8208 1.61633 12.6874 1.41633C12.5541 1.20299 12.2808 1.09633 11.8674 1.09633C11.5741 1.09633 11.3541 1.18966 11.2074 1.37633C11.0741 1.54966 10.9741 1.76966 10.9074 2.03633C10.8541 2.28966 10.8141 2.57633 10.7874 2.89633C10.7608 3.20299 10.7141 3.48966 10.6474 3.75633C10.5941 4.00966 10.4941 4.22966 10.3474 4.41633C10.2141 4.58966 9.9941 4.67633 9.68744 4.67633C9.46077 4.67633 9.2741 4.58966 9.12743 4.41633C8.9941 4.22966 8.86743 4.00299 8.74743 3.73633C8.62743 3.45633 8.50743 3.15633 8.38743 2.83633C8.26743 2.51633 8.1141 2.22299 7.92743 1.95633C7.74077 1.67633 7.5141 1.44966 7.24743 1.27633C6.98077 1.08966 6.64077 0.996328 6.22743 0.996328C6.02743 0.996328 5.82743 1.01633 5.62743 1.05633C5.42743 1.09633 5.24077 1.16299 5.06743 1.25633C4.90743 1.33633 4.7741 1.44299 4.66743 1.57633C4.5741 1.69633 4.52743 1.84299 4.52743 2.01633C4.52743 2.28299 4.62077 2.46966 4.80743 2.57633C4.9941 2.66966 5.1941 2.74299 5.40743 2.79633C5.6341 2.83633 5.84077 2.89633 6.02743 2.97633C6.2141 3.05633 6.30743 3.20966 6.30743 3.43633C6.30743 3.66299 6.18077 3.84966 5.92743 3.99633C5.68743 4.12966 5.38077 4.24966 5.00743 4.35633C4.64743 4.46299 4.24743 4.56966 3.80743 4.67633C3.38077 4.76966 2.98077 4.89633 2.60743 5.05633C2.24743 5.20299 1.94077 5.39633 1.68743 5.63633C1.44743 5.86299 1.32743 6.15633 1.32743 6.51633C1.32743 6.83633 1.42743 7.10299 1.62743 7.31633C1.84077 7.51633 2.12077 7.61633 2.46743 7.61633C2.8541 7.61633 3.18743 7.52966 3.46743 7.35633C3.76077 7.18299 4.02743 6.98966 4.26743 6.77633C4.50743 6.56299 4.7341 6.36966 4.94743 6.19633C5.1741 6.02299 5.40743 5.93633 5.64743 5.93633C5.8741 5.93633 6.0541 5.98299 6.18743 6.07633C6.32077 6.16966 6.38743 6.32299 6.38743 6.53633C6.38743 6.73633 6.30743 6.93633 6.14743 7.13633C6.00077 7.32299 5.80743 7.52299 5.56743 7.73633C5.34077 7.93633 5.0941 8.14299 4.82743 8.35633C4.56077 8.56966 4.30743 8.80299 4.06743 9.05633C3.84077 9.30966 3.64743 9.58299 3.48743 9.87633C3.34077 10.1563 3.26743 10.4697 3.26743 10.8163C3.26743 11.523 3.60743 11.8763 4.28743 11.8763C4.52743 11.8763 4.76077 11.7763 4.98743 11.5763C5.22743 11.363 5.46743 11.1363 5.70743 10.8963C5.94743 10.6563 6.1941 10.4363 6.44743 10.2363C6.70077 10.023 6.9741 9.91633 7.26743 9.91633C7.54743 9.91633 7.7541 9.99633 7.88743 10.1563C8.02077 10.303 8.08743 10.503 8.08743 10.7563C8.08743 10.9963 8.00743 11.243 7.84743 11.4963C7.68743 11.7497 7.50743 12.0163 7.30743 12.2963C7.12077 12.563 6.94743 12.8563 6.78743 13.1763C6.62743 13.483 6.54743 13.823 6.54743 14.1963C6.54743 14.7563 6.72743 15.1697 7.08743 15.4363C7.44743 15.703 7.90077 15.8363 8.44743 15.8363C8.8341 15.8363 9.1541 15.743 9.40744 15.5563C9.6741 15.3697 9.8941 15.1297 10.0674 14.8363C10.2408 14.5297 10.3741 14.1897 10.4674 13.8163C10.5741 13.4297 10.6474 13.0497 10.6874 12.6763C10.7408 12.2897 10.7674 11.923 10.7674 11.5763C10.7808 11.2163 10.7874 10.9163 10.7874 10.6763C10.7874 10.063 10.9274 9.57633 11.2074 9.21633C11.4874 8.85633 11.9474 8.67633 12.5874 8.67633Z" fill="white" fill-opacity="0.71"/>
</svg>
