<svg width="18" height="19" viewBox="0 0 18 19" fill="none" xmlns="http://www.w3.org/2000/svg">
<path d="M11.9341 8.44391C12.4941 8.49724 12.8874 8.69057 13.1141 9.02391C13.3408 9.34391 13.4341 9.72391 13.3941 10.1639C13.3408 10.6706 13.1608 11.1572 12.8541 11.6239C12.5608 12.0772 12.2474 12.5306 11.9141 12.9839C11.5808 13.4372 11.2808 13.8906 11.0141 14.3439C10.7474 14.7839 10.6141 15.2439 10.6141 15.7239C10.6141 15.9906 10.6874 16.2172 10.8341 16.4039C10.9941 16.5906 11.2074 16.6839 11.4741 16.6839C11.7274 16.6839 11.9341 16.5772 12.0941 16.3639C12.2674 16.1506 12.4274 15.8839 12.5741 15.5639C12.7208 15.2439 12.8674 14.8972 13.0141 14.5239C13.1741 14.1372 13.3608 13.7839 13.5741 13.4639C13.7874 13.1439 14.0474 12.8772 14.3541 12.6639C14.6608 12.4506 15.0408 12.3439 15.4941 12.3439C15.8941 12.3439 16.2274 12.4306 16.4941 12.6039C16.7608 12.7772 16.9741 13.0172 17.1341 13.3239C17.2941 13.6172 17.4074 13.9639 17.4741 14.3639C17.5408 14.7506 17.5741 15.1572 17.5741 15.5839C17.5741 16.4506 17.4141 17.1306 17.0941 17.6239C16.7874 18.1306 16.4008 18.3839 15.9341 18.3839C15.6674 18.3839 15.4008 18.2839 15.1341 18.0839C14.8674 17.8972 14.7341 17.6106 14.7341 17.2239C14.7341 16.8506 14.8408 16.5172 15.0541 16.2239C15.2674 15.9439 15.4941 15.6706 15.7341 15.4039C15.9874 15.1372 16.2208 14.8706 16.4341 14.6039C16.6474 14.3239 16.7541 14.0106 16.7541 13.6639C16.7541 13.2906 16.6341 13.0106 16.3941 12.8239C16.1541 12.6239 15.8608 12.5239 15.5141 12.5239C15.1674 12.5372 14.9208 12.6439 14.7741 12.8439C14.6274 13.0439 14.5208 13.2972 14.4541 13.6039C14.4008 13.9106 14.3541 14.2506 14.3141 14.6239C14.2741 14.9839 14.1941 15.3306 14.0741 15.6639C13.9674 15.9839 13.7874 16.2639 13.5341 16.5039C13.2808 16.7572 12.9008 16.9172 12.3941 16.9839C12.3141 16.9972 12.2341 17.0039 12.1541 17.0039C12.0874 17.0172 12.0208 17.0239 11.9541 17.0239C11.5941 17.0239 11.2874 16.9639 11.0341 16.8439C10.7941 16.7239 10.5608 16.5906 10.3341 16.4439C10.1208 16.2972 9.90078 16.1639 9.67411 16.0439C9.46078 15.9239 9.20745 15.8639 8.91411 15.8639C8.44745 15.8639 7.98745 15.9372 7.53411 16.0839C7.08078 16.2306 6.62078 16.3039 6.15411 16.3039C5.48745 16.3039 4.86078 16.2106 4.27411 16.0239C3.70078 15.8506 3.19411 15.5906 2.75411 15.2439C2.32745 14.8839 1.98745 14.4439 1.73411 13.9239C1.49411 13.3906 1.37411 12.7706 1.37411 12.0639C1.37411 11.4772 1.49411 10.9572 1.73411 10.5039C1.97411 10.0506 2.23411 9.65057 2.51411 9.30391C2.79411 8.95724 3.05411 8.66391 3.29411 8.42391C3.53411 8.18391 3.65411 7.99057 3.65411 7.84391C3.65411 7.60391 3.46745 7.48391 3.09411 7.48391C2.92078 7.48391 2.74745 7.50391 2.57411 7.54391C2.40078 7.58391 2.17411 7.60391 1.89411 7.60391C1.37411 7.60391 0.974114 7.47057 0.694114 7.20391C0.427447 6.93724 0.294114 6.57057 0.294114 6.10391C0.294114 5.38391 0.440781 4.69057 0.734114 4.02391C1.02745 3.34391 1.42078 2.75057 1.91411 2.24391C2.40745 1.73724 2.96745 1.33057 3.59411 1.02391C4.23411 0.717239 4.89411 0.563906 5.57411 0.563906C6.00078 0.563906 6.36078 0.630573 6.65411 0.763906C6.94745 0.897239 7.21411 1.05057 7.45411 1.22391C7.69411 1.38391 7.92078 1.53057 8.13411 1.66391C8.36078 1.79724 8.62078 1.86391 8.91411 1.86391C9.18078 1.86391 9.38745 1.80391 9.53411 1.68391C9.68078 1.56391 9.82078 1.43057 9.95411 1.28391C10.1008 1.12391 10.2608 0.983906 10.4341 0.863906C10.6208 0.743906 10.8808 0.683906 11.2141 0.683906C11.6541 0.683906 12.0274 0.830572 12.3341 1.12391C12.6408 1.41724 12.8874 1.79724 13.0741 2.26391C13.2741 2.71724 13.4208 3.23057 13.5141 3.80391C13.6074 4.36391 13.6541 4.91057 13.6541 5.44391C13.6541 6.04391 13.5208 6.51724 13.2541 6.86391C13.0008 7.19724 12.6408 7.36391 12.1741 7.36391C11.7874 7.36391 11.4474 7.26391 11.1541 7.06391C10.8741 6.85057 10.7341 6.51057 10.7341 6.04391C10.7341 5.72391 10.8074 5.40391 10.9541 5.08391C11.1141 4.76391 11.2874 4.43724 11.4741 4.10391C11.6741 3.75724 11.8474 3.39724 11.9941 3.02391C12.1541 2.65057 12.2341 2.25057 12.2341 1.82391C12.2341 1.59724 12.1674 1.38391 12.0341 1.18391C11.9008 0.970572 11.6274 0.863906 11.2141 0.863906C10.9208 0.863906 10.7008 0.957239 10.5541 1.14391C10.4208 1.31724 10.3208 1.53724 10.2541 1.80391C10.2008 2.05724 10.1608 2.34391 10.1341 2.66391C10.1074 2.97057 10.0608 3.25724 9.99411 3.52391C9.94078 3.77724 9.84078 3.99724 9.69411 4.18391C9.56078 4.35724 9.34078 4.44391 9.03411 4.44391C8.80745 4.44391 8.62078 4.35724 8.47411 4.18391C8.34078 3.99724 8.21411 3.77057 8.09411 3.50391C7.97411 3.22391 7.85411 2.92391 7.73411 2.60391C7.61411 2.28391 7.46078 1.99057 7.27411 1.72391C7.08745 1.44391 6.86078 1.21724 6.59411 1.04391C6.32745 0.857239 5.98745 0.763906 5.57411 0.763906C5.37411 0.763906 5.17411 0.783906 4.97411 0.823905C4.77411 0.863905 4.58745 0.930572 4.41411 1.02391C4.25411 1.10391 4.12078 1.21057 4.01411 1.34391C3.92078 1.46391 3.87411 1.61057 3.87411 1.78391C3.87411 2.05057 3.96745 2.23724 4.15411 2.34391C4.34078 2.43724 4.54078 2.51057 4.75411 2.56391C4.98078 2.60391 5.18745 2.66391 5.37411 2.74391C5.56078 2.82391 5.65411 2.97724 5.65411 3.20391C5.65411 3.43057 5.52745 3.61724 5.27411 3.76391C5.03411 3.89724 4.72745 4.01724 4.35411 4.12391C3.99411 4.23057 3.59411 4.33724 3.15411 4.44391C2.72745 4.53724 2.32745 4.66391 1.95411 4.82391C1.59411 4.97057 1.28745 5.16391 1.03411 5.40391C0.794114 5.63057 0.674114 5.92391 0.674114 6.28391C0.674114 6.60391 0.774114 6.87057 0.974114 7.08391C1.18745 7.28391 1.46745 7.38391 1.81411 7.38391C2.20078 7.38391 2.53411 7.29724 2.81411 7.12391C3.10745 6.95057 3.37411 6.75724 3.61411 6.54391C3.85411 6.33057 4.08078 6.13724 4.29411 5.96391C4.52078 5.79057 4.75411 5.70391 4.99411 5.70391C5.22078 5.70391 5.40078 5.75057 5.53411 5.84391C5.66745 5.93724 5.73411 6.09057 5.73411 6.30391C5.73411 6.50391 5.65411 6.70391 5.49411 6.90391C5.34745 7.09057 5.15411 7.29057 4.91411 7.50391C4.68745 7.70391 4.44078 7.91057 4.17411 8.12391C3.90745 8.33724 3.65411 8.57057 3.41411 8.82391C3.18745 9.07724 2.99411 9.35057 2.83411 9.64391C2.68745 9.92391 2.61411 10.2372 2.61411 10.5839C2.61411 11.2906 2.95411 11.6439 3.63411 11.6439C3.87411 11.6439 4.10745 11.5439 4.33411 11.3439C4.57411 11.1306 4.81411 10.9039 5.05411 10.6639C5.29411 10.4239 5.54078 10.2039 5.79411 10.0039C6.04745 9.79057 6.32078 9.68391 6.61411 9.68391C6.89411 9.68391 7.10078 9.76391 7.23411 9.92391C7.36745 10.0706 7.43411 10.2706 7.43411 10.5239C7.43411 10.7639 7.35411 11.0106 7.19411 11.2639C7.03411 11.5172 6.85411 11.7839 6.65411 12.0639C6.46745 12.3306 6.29411 12.6239 6.13411 12.9439C5.97411 13.2506 5.89411 13.5906 5.89411 13.9639C5.89411 14.5239 6.07411 14.9372 6.43411 15.2039C6.79411 15.4706 7.24745 15.6039 7.79411 15.6039C8.18078 15.6039 8.50078 15.5106 8.75411 15.3239C9.02078 15.1372 9.24078 14.8972 9.41411 14.6039C9.58745 14.2972 9.72078 13.9572 9.81411 13.5839C9.92078 13.1972 9.99411 12.8172 10.0341 12.4439C10.0874 12.0572 10.1141 11.6906 10.1141 11.3439C10.1274 10.9839 10.1341 10.6839 10.1341 10.4439C10.1341 9.83057 10.2741 9.34391 10.5541 8.98391C10.8341 8.62391 11.2941 8.44391 11.9341 8.44391Z" fill="white" fill-opacity="0.71"/>
</svg>
