<svg width="1196" height="897" viewBox="0 0 1196 897" fill="none" xmlns="http://www.w3.org/2000/svg">
<ellipse cx="484.669" cy="388.629" rx="480.669" ry="484.007" stroke="white" stroke-opacity="0.5" stroke-width="3.33798" stroke-linecap="round" stroke-dasharray="2.23 13.35"/>
<ellipse cx="433.486" cy="468.74" rx="255.912" ry="252.574" stroke="white" stroke-opacity="0.5" stroke-width="3.33798" stroke-linecap="round" stroke-dasharray="2.23 13.35"/>
<ellipse cx="432.374" cy="464.289" rx="121.28" ry="123.505" stroke="white" stroke-opacity="0.5" stroke-width="3.33798"/>
<circle cx="433.487" cy="460.951" r="28.9291" stroke="white" stroke-opacity="0.5" stroke-width="1.11266" stroke-linecap="round" stroke-linejoin="round" stroke-dasharray="2.23 6.68"/>
<circle cx="424.585" cy="391.968" r="6.67596" fill="#D9D9D9" fill-opacity="0.75"/>
<circle cx="540.676" cy="519.298" r="6.67596" fill="#D9D9D9" fill-opacity="0.75"/>
<circle cx="529.175" cy="391.968" r="6.67596" fill="#D9D9D9" fill-opacity="0.75"/>
<path d="M627 646.055C747.484 650.731 1043.36 570.314 1263 211.244" stroke="#45E871" stroke-opacity="0.75" stroke-width="3.73987"/>
<path d="M825.924 507.94C825.924 721.454 649.853 894.589 432.599 894.589C215.345 894.589 39.274 721.454 39.274 507.94C39.274 294.426 215.345 121.291 432.599 121.291C649.853 121.291 825.924 294.426 825.924 507.94Z" stroke="white" stroke-opacity="0.75" stroke-width="3.33798"/>
<ellipse cx="482.669" cy="389.007" rx="480.669" ry="484.007" stroke="white" stroke-opacity="0.5" stroke-width="3.33798" stroke-linecap="round" stroke-dasharray="2.23 13.35"/>
<ellipse cx="431.486" cy="534.196" rx="255.912" ry="252.574" stroke="white" stroke-opacity="0.5" stroke-width="3.33798" stroke-linecap="round" stroke-dasharray="2.23 13.35"/>
<ellipse cx="430.374" cy="464.667" rx="121.28" ry="123.505" stroke="white" stroke-opacity="0.5" stroke-width="3.33798"/>
<ellipse cx="430.374" cy="459.105" rx="65.6469" ry="66.7596" stroke="white" stroke-opacity="0.5" stroke-width="2.22532" stroke-linecap="round" stroke-dasharray="2.23 11.13"/>
<circle cx="430.374" cy="460.217" r="47.8443" stroke="white" stroke-opacity="0.5" stroke-width="2.22532"/>
<circle cx="431.487" cy="461.329" r="28.9291" stroke="white" stroke-opacity="0.5" stroke-width="1.11266" stroke-linecap="round" stroke-linejoin="round" stroke-dasharray="2.23 6.68"/>
<circle cx="430.374" cy="460.219" r="12.2393" fill="#45E871" fill-opacity="0.73"/>
<circle cx="422.585" cy="392.346" r="6.67596" fill="#D9D9D9" fill-opacity="0.75"/>
<circle cx="464.866" cy="427.95" r="6.67596" fill="#D9D9D9" fill-opacity="0.75"/>
<circle cx="527.175" cy="392.346" r="6.67596" fill="#D9D9D9" fill-opacity="0.75"/>
<circle cx="420.676" cy="506.298" r="6.67596" fill="#D9D9D9" fill-opacity="0.75"/>
</svg>
