<svg width="320" height="475" viewBox="0 0 320 475" fill="none" xmlns="http://www.w3.org/2000/svg">
<path d="M76.5 465V475M94 467V473" stroke="white" stroke-opacity="0.75" stroke-width="3" stroke-linejoin="round"/>
<path d="M111 465V475M128 467V473" stroke="white" stroke-opacity="0.75" stroke-width="3" stroke-linejoin="round"/>
<path d="M145 465V475M163 467V473" stroke="white" stroke-opacity="0.75" stroke-width="3" stroke-linejoin="round"/>
<path d="M180 465V475M198 467V473" stroke="white" stroke-opacity="0.75" stroke-width="3" stroke-linejoin="round"/>
<path d="M214 465V475M231 467V473" stroke="white" stroke-opacity="0.75" stroke-width="3" stroke-linejoin="round"/>
<path d="M248 465V475M231 467V473" stroke="white" stroke-opacity="0.75" stroke-width="3" stroke-linejoin="round"/>
<path d="M336.25 253.5C336.25 349.447 257.128 427.25 159.5 427.25C61.8716 427.25 -17.25 349.447 -17.25 253.5C-17.25 157.553 61.8716 79.75 159.5 79.75C257.128 79.75 336.25 157.553 336.25 253.5Z" stroke="white" stroke-opacity="0.75" stroke-width="1.5"/>
<ellipse cx="182" cy="218.5" rx="216" ry="217.5" stroke="white" stroke-opacity="0.5" stroke-width="1.5" stroke-linecap="round" stroke-dasharray="1 6"/>
<ellipse cx="159" cy="254.5" rx="115" ry="113.5" stroke="white" stroke-opacity="0.5" stroke-width="1.5" stroke-linecap="round" stroke-dasharray="1 6"/>
<ellipse cx="158.5" cy="252.5" rx="54.5" ry="55.5" stroke="white" stroke-opacity="0.5" stroke-width="1.5"/>
<ellipse cx="158.5" cy="250" rx="29.5" ry="30" stroke="white" stroke-opacity="0.5" stroke-linecap="round" stroke-dasharray="1 5"/>
<circle cx="158.5" cy="250.5" r="21.5" stroke="white" stroke-opacity="0.5"/>
<circle cx="159" cy="251" r="13" stroke="white" stroke-opacity="0.5" stroke-width="0.5" stroke-linecap="round" stroke-linejoin="round" stroke-dasharray="1 3"/>
<path d="M248 333.951C279.068 335.176 355.364 314.101 412 220" stroke="#45E871" stroke-opacity="0.75"/>
<circle cx="158.5" cy="250.5" r="5.5" fill="#45E871" fill-opacity="0.73"/>
<circle cx="155" cy="220" r="3" fill="#D9D9D9" fill-opacity="0.75"/>
<circle cx="174" cy="236" r="3" fill="#D9D9D9" fill-opacity="0.75"/>
<circle cx="202" cy="220" r="3" fill="#D9D9D9" fill-opacity="0.75"/>
<circle cx="151" cy="260" r="3" fill="#D9D9D9" fill-opacity="0.75"/>
<circle cx="161" cy="264" r="3" fill="#D9D9D9" fill-opacity="0.75"/>
</svg>
