<svg width="155" height="107" viewBox="0 0 155 107" fill="none" xmlns="http://www.w3.org/2000/svg">
<path d="M13.3817 77.2542C21.8004 80.0321 32.547 80.9818 42.8663 79.8599L110.206 72.539C111.659 73.9523 113.222 75.0822 114.844 75.87L66.1922 81.1592C102.124 84.5044 109.027 109.101 138.115 105.939L132.543 75.8634L136.314 75.4533L141.887 105.529C148.136 104.849 151.954 97.5659 150.416 89.2609L147.629 74.2232C153.097 73.6288 154.735 71.046 154.127 67.7641L152.386 58.3655C151.777 55.08 149.262 52.9524 143.798 53.5464L143.101 49.787C148.569 49.1926 150.207 46.6098 149.599 43.3278L147.858 33.9293C147.249 30.6438 144.734 28.5162 139.27 29.1102L136.483 14.0726C134.944 5.76755 128.631 -0.41438 122.382 0.264987L127.955 30.3403L124.184 30.7504L118.611 0.675016C89.5225 3.83737 91.8266 28.9341 58.5295 39.8056L107.181 34.5163C105.91 35.6186 104.818 37.0372 103.937 38.7043L36.5968 46.0252C26.2775 47.147 16.3003 50.3497 9.22323 54.8123C2.83311 58.8414 -0.566136 63.4903 0.130127 67.2478C0.82639 71.0054 5.78021 74.7461 13.3817 77.2542ZM34.2184 53.954C34.7186 53.8997 35.2349 54.0455 35.6539 54.3596C36.0729 54.6737 36.3601 55.1302 36.4525 55.6287L39.239 70.6664C39.3313 71.1649 39.2212 71.6646 38.9329 72.0556C38.6446 72.4466 38.2016 72.6967 37.7015 72.7511C30.1798 73.5688 26.689 54.7726 34.2184 53.954Z" fill="white"/>
</svg>
