<svg width="153" height="129" viewBox="0 0 153 129" fill="none" xmlns="http://www.w3.org/2000/svg">
<path d="M18.9104 128.011C27.87 127.193 38.0132 123.481 46.7397 117.826L103.685 80.9244C105.697 81.7431 107.667 82.222 109.518 82.3244L68.3763 108.985C102.375 96.7475 120.843 119.015 145.441 103.075L125.441 74.5962L128.631 72.5295L148.631 101.008C153.915 97.5833 153.722 88.4323 148.199 80.5683L138.199 66.3291C142.823 63.3327 143.01 59.9636 140.828 56.8559L134.578 47.9565C132.393 44.8455 129.07 43.756 124.449 46.7504L121.949 43.1906C126.573 40.1941 126.76 36.8251 124.577 33.7174L118.327 24.8179C116.143 21.7069 112.819 20.6174 108.198 23.6118L98.1983 9.37267C92.6754 1.50868 83.9144 -2.09051 78.6299 1.33387L98.6302 29.8121L95.4408 31.8789L75.4405 3.40064C50.842 19.3406 65.4203 44.1282 40.8758 69.8273L82.0182 43.1667C81.4237 44.854 81.1482 46.7882 81.1853 48.8862L24.2393 85.7877C15.5128 91.4425 8.13092 99.0866 3.98637 106.76C0.244009 113.689 -0.498303 119.95 2.00049 123.508C4.49928 127.066 10.8207 128.749 18.9104 128.011ZM26.0499 94.974C26.4729 94.6999 27.0102 94.6246 27.5437 94.7646C28.0772 94.9046 28.5632 95.2485 28.8947 95.7205L38.8948 109.96C39.2264 110.432 39.3763 110.993 39.3117 111.521C39.247 112.048 38.9731 112.499 38.5501 112.773C32.1894 116.895 19.6827 99.1001 26.0499 94.974Z" fill="white"/>
</svg>
