<svg width="389" height="23" viewBox="0 0 389 23" fill="none" xmlns="http://www.w3.org/2000/svg">
<path d="M4 0V22.2532M42.9431 4.45064V17.8025" stroke="white" stroke-opacity="0.75" stroke-width="6.67596" stroke-linejoin="round"/>
<path d="M80.7739 0V22.2532M118.604 4.45064V17.8025" stroke="white" stroke-opacity="0.75" stroke-width="6.67596" stroke-linejoin="round"/>
<path d="M156.434 0V22.2532M196.49 4.45064V17.8025" stroke="white" stroke-opacity="0.75" stroke-width="6.67596" stroke-linejoin="round"/>
<path d="M234.321 0V22.2532M274.377 4.45064V17.8025" stroke="white" stroke-opacity="0.75" stroke-width="6.67596" stroke-linejoin="round"/>
<path d="M309.981 0V22.2532M347.812 4.45064V17.8025" stroke="white" stroke-opacity="0.75" stroke-width="6.67596" stroke-linejoin="round"/>
<path d="M385.643 0V22.2532M347.812 4.45064V17.8025" stroke="white" stroke-opacity="0.75" stroke-width="6.67596" stroke-linejoin="round"/>
<path d="M4 0V22.2532M42.9431 4.45064V17.8025" stroke="white" stroke-opacity="0.75" stroke-width="6.67596" stroke-linejoin="round"/>
<path d="M80.7739 0V22.2532M118.604 4.45064V17.8025" stroke="white" stroke-opacity="0.75" stroke-width="6.67596" stroke-linejoin="round"/>
<path d="M156.434 0V22.2532M196.49 4.45064V17.8025" stroke="white" stroke-opacity="0.75" stroke-width="6.67596" stroke-linejoin="round"/>
<path d="M234.32 0V22.2532M274.376 4.45064V17.8025" stroke="white" stroke-opacity="0.75" stroke-width="6.67596" stroke-linejoin="round"/>
<path d="M309.981 0V22.2532M347.812 4.45064V17.8025" stroke="white" stroke-opacity="0.75" stroke-width="6.67596" stroke-linejoin="round"/>
</svg>
