<svg width="156" height="31" viewBox="0 0 156 31" fill="none" xmlns="http://www.w3.org/2000/svg">
<mask id="path-1-inside-1_936_1213" fill="white">
<path fill-rule="evenodd" clip-rule="evenodd" d="M149.562 0H10.8527V3H5V27.6667H10.8527V31H149.562V27.6667H156V3H149.562V0Z"/>
</mask>
<path d="M10.8527 0V-1H9.85274V0H10.8527ZM149.562 0H150.562V-1H149.562V0ZM10.8527 3V4H11.8527V3H10.8527ZM5 3V2H4V3H5ZM5 27.6667H4V28.6667H5V27.6667ZM10.8527 27.6667H11.8527V26.6667H10.8527V27.6667ZM10.8527 31H9.85274V32H10.8527V31ZM149.562 31V32H150.562V31H149.562ZM149.562 27.6667V26.6667H148.562V27.6667H149.562ZM156 27.6667V28.6667H157V27.6667H156ZM156 3H157V2H156V3ZM149.562 3H148.562V4H149.562V3ZM10.8527 1H149.562V-1H10.8527V1ZM11.8527 3V0H9.85274V3H11.8527ZM5 4H10.8527V2H5V4ZM6 27.6667V3H4V27.6667H6ZM10.8527 26.6667H5V28.6667H10.8527V26.6667ZM11.8527 31V27.6667H9.85274V31H11.8527ZM149.562 30H10.8527V32H149.562V30ZM148.562 27.6667V31H150.562V27.6667H148.562ZM156 26.6667H149.562V28.6667H156V26.6667ZM155 3V27.6667H157V3H155ZM149.562 4H156V2H149.562V4ZM148.562 0V3H150.562V0H148.562Z" fill="#45E871" mask="url(#path-1-inside-1_936_1213)"/>
<path d="M20.72 13.68C20.72 12.96 20.16 12.4 19.44 12.4H18.16C17.44 12.4 16.88 12.976 16.88 13.68V19.104C16.88 19.808 17.456 20.384 18.16 20.384H19.44C20.144 20.384 20.72 19.808 20.72 19.104V18.224H22.32V19.104C22.32 20.688 21.04 22 19.44 22H18.16C16.576 22 15.28 20.688 15.28 19.104V13.68C15.28 12.08 16.576 10.8 18.16 10.8H19.44C21.04 10.8 22.32 12.08 22.32 13.68V14.56H20.72V13.68ZM26.4738 10.8V15.28H30.3138V10.8H31.9138V22H30.3138V16.88H26.4738V22H24.8738V10.8H26.4738ZM38.6275 20.384C39.3315 20.384 39.9075 19.808 39.9075 19.104V13.68C39.9075 12.96 39.3475 12.4 38.6275 12.4H37.3475C36.6275 12.4 36.0675 12.976 36.0675 13.68V19.104C36.0675 19.808 36.6435 20.384 37.3475 20.384H38.6275ZM34.4675 19.104V13.68C34.4675 12.08 35.7635 10.8 37.3475 10.8H38.6275C40.2275 10.8 41.5075 12.08 41.5075 13.68V19.104C41.5075 20.688 40.2275 22 38.6275 22H37.3475C35.7635 22 34.4675 20.688 34.4675 19.104ZM48.2213 20.384C48.9253 20.384 49.5013 19.808 49.5013 19.104V13.68C49.5013 12.96 48.9413 12.4 48.2213 12.4H46.9413C46.2213 12.4 45.6613 12.976 45.6613 13.68V19.104C45.6613 19.808 46.2373 20.384 46.9413 20.384H48.2213ZM44.0613 19.104V13.68C44.0613 12.08 45.3573 10.8 46.9413 10.8H48.2213C49.8213 10.8 51.1013 12.08 51.1013 13.68V19.104C51.1013 20.688 49.8213 22 48.2213 22H46.9413C45.3573 22 44.0613 20.688 44.0613 19.104ZM53.655 18.384H55.255V19.024C55.255 19.776 55.879 20.4 56.631 20.4H57.703C58.519 20.4 59.095 19.888 59.095 19.184C59.095 16.976 53.815 16.496 53.815 13.456C53.815 11.888 55.047 10.8 56.791 10.8H57.543C59.191 10.8 60.535 12.128 60.535 13.776V14.256H58.935V13.776C58.935 13.008 58.311 12.4 57.543 12.4H56.791C55.927 12.4 55.415 12.8 55.415 13.456C55.415 15.152 60.695 15.808 60.695 19.184C60.695 20.784 59.399 22 57.703 22H56.631C54.983 22 53.655 20.672 53.655 19.024V18.384ZM70.2888 10.8V12.4H64.8488V15.328H69.6488V16.928H64.8488V20.4H70.2888V22H63.2488V10.8H70.2888ZM82.4363 18.384H84.0363V19.024C84.0363 19.776 84.6603 20.4 85.4123 20.4H86.4843C87.3003 20.4 87.8763 19.888 87.8763 19.184C87.8763 16.976 82.5963 16.496 82.5963 13.456C82.5963 11.888 83.8283 10.8 85.5723 10.8H86.3243C87.9723 10.8 89.3163 12.128 89.3163 13.776V14.256H87.7163V13.776C87.7163 13.008 87.0923 12.4 86.3243 12.4H85.5723C84.7083 12.4 84.1963 12.8 84.1963 13.456C84.1963 15.152 89.4763 15.808 89.4763 19.184C89.4763 20.784 88.1803 22 86.4843 22H85.4123C83.7643 22 82.4363 20.672 82.4363 19.024V18.384ZM93.63 22H92.03V10.8H93.63V15.6H94.238L97.182 10.8H99.07L95.63 16.4L99.07 22H97.182L94.238 17.2H93.63V22ZM101.624 10.8H108.664V12.4H105.944V20.4H108.664V22H101.624V20.4H104.344V12.4H101.624V10.8ZM112.818 10.8V20.4H118.258V22H111.218V10.8H112.818ZM122.411 10.8V20.4H127.851V22H120.811V10.8H122.411ZM137.445 10.8V12.4H132.005V15.328H136.805V16.928H132.005V20.4H137.445V22H130.405V10.8H137.445ZM144.159 10.8C145.743 10.8 147.039 12.08 147.039 13.68V19.104C147.039 20.688 145.743 22 144.159 22H139.999V10.8H144.159ZM141.599 20.384H144.159C144.863 20.384 145.439 19.808 145.439 19.104V13.68C145.439 12.976 144.879 12.4 144.159 12.4H141.599V20.384Z" fill="#45E871"/>
</svg>
