<svg width="188" height="31" viewBox="0 0 188 31" fill="none" xmlns="http://www.w3.org/2000/svg">
<mask id="path-1-inside-1_936_1438" fill="white">
<path fill-rule="evenodd" clip-rule="evenodd" d="M180.198 0H12.0931V3H5V27.6667H12.0931V31H180.198V27.6667H188V3H180.198V0Z"/>
</mask>
<path d="M12.0931 0V-1H11.0931V0H12.0931ZM180.198 0H181.198V-1H180.198V0ZM12.0931 3V4H13.0931V3H12.0931ZM5 3V2H4V3H5ZM5 27.6667H4V28.6667H5V27.6667ZM12.0931 27.6667H13.0931V26.6667H12.0931V27.6667ZM12.0931 31H11.0931V32H12.0931V31ZM180.198 31V32H181.198V31H180.198ZM180.198 27.6667V26.6667H179.198V27.6667H180.198ZM188 27.6667V28.6667H189V27.6667H188ZM188 3H189V2H188V3ZM180.198 3H179.198V4H180.198V3ZM12.0931 1H180.198V-1H12.0931V1ZM13.0931 3V0H11.0931V3H13.0931ZM5 4H12.0931V2H5V4ZM6 27.6667V3H4V27.6667H6ZM12.0931 26.6667H5V28.6667H12.0931V26.6667ZM13.0931 31V27.6667H11.0931V31H13.0931ZM180.198 30H12.0931V32H180.198V30ZM179.198 27.6667V31H181.198V27.6667H179.198ZM188 26.6667H180.198V28.6667H188V26.6667ZM187 3V27.6667H189V3H187ZM180.198 4H188V2H180.198V4ZM179.198 0V3H181.198V0H179.198Z" fill="#45E871" mask="url(#path-1-inside-1_936_1438)"/>
<path d="M20.72 13.68C20.72 12.96 20.16 12.4 19.44 12.4H18.16C17.44 12.4 16.88 12.976 16.88 13.68V19.104C16.88 19.808 17.456 20.384 18.16 20.384H19.44C20.144 20.384 20.72 19.808 20.72 19.104V18.224H22.32V19.104C22.32 20.688 21.04 22 19.44 22H18.16C16.576 22 15.28 20.688 15.28 19.104V13.68C15.28 12.08 16.576 10.8 18.16 10.8H19.44C21.04 10.8 22.32 12.08 22.32 13.68V14.56H20.72V13.68ZM26.4738 10.8V15.28H30.3138V10.8H31.9138V22H30.3138V16.88H26.4738V22H24.8738V10.8H26.4738ZM38.6275 20.384C39.3315 20.384 39.9075 19.808 39.9075 19.104V13.68C39.9075 12.96 39.3475 12.4 38.6275 12.4H37.3475C36.6275 12.4 36.0675 12.976 36.0675 13.68V19.104C36.0675 19.808 36.6435 20.384 37.3475 20.384H38.6275ZM34.4675 19.104V13.68C34.4675 12.08 35.7635 10.8 37.3475 10.8H38.6275C40.2275 10.8 41.5075 12.08 41.5075 13.68V19.104C41.5075 20.688 40.2275 22 38.6275 22H37.3475C35.7635 22 34.4675 20.688 34.4675 19.104ZM48.2213 20.384C48.9253 20.384 49.5013 19.808 49.5013 19.104V13.68C49.5013 12.96 48.9413 12.4 48.2213 12.4H46.9413C46.2213 12.4 45.6613 12.976 45.6613 13.68V19.104C45.6613 19.808 46.2373 20.384 46.9413 20.384H48.2213ZM44.0613 19.104V13.68C44.0613 12.08 45.3573 10.8 46.9413 10.8H48.2213C49.8213 10.8 51.1013 12.08 51.1013 13.68V19.104C51.1013 20.688 49.8213 22 48.2213 22H46.9413C45.3573 22 44.0613 20.688 44.0613 19.104ZM53.655 18.384H55.255V19.024C55.255 19.776 55.879 20.4 56.631 20.4H57.703C58.519 20.4 59.095 19.888 59.095 19.184C59.095 16.976 53.815 16.496 53.815 13.456C53.815 11.888 55.047 10.8 56.791 10.8H57.543C59.191 10.8 60.535 12.128 60.535 13.776V14.256H58.935V13.776C58.935 13.008 58.311 12.4 57.543 12.4H56.791C55.927 12.4 55.415 12.8 55.415 13.456C55.415 15.152 60.695 15.808 60.695 19.184C60.695 20.784 59.399 22 57.703 22H56.631C54.983 22 53.655 20.672 53.655 19.024V18.384ZM70.2888 10.8V12.4H64.8488V15.328H69.6488V16.928H64.8488V20.4H70.2888V22H63.2488V10.8H70.2888ZM82.4363 18.384H84.0363V19.024C84.0363 19.776 84.6603 20.4 85.4123 20.4H86.4843C87.3003 20.4 87.8763 19.888 87.8763 19.184C87.8763 16.976 82.5963 16.496 82.5963 13.456C82.5963 11.888 83.8283 10.8 85.5723 10.8H86.3243C87.9723 10.8 89.3163 12.128 89.3163 13.776V14.256H87.7163V13.776C87.7163 13.008 87.0923 12.4 86.3243 12.4H85.5723C84.7083 12.4 84.1963 12.8 84.1963 13.456C84.1963 15.152 89.4763 15.808 89.4763 19.184C89.4763 20.784 88.1803 22 86.4843 22H85.4123C83.7643 22 82.4363 20.672 82.4363 19.024V18.384ZM97.47 10.8H99.07V22H96.75L93.63 13.488V22H92.03V10.8H94.35L97.47 19.312V10.8ZM108.664 10.8V12.4H103.224V15.328H108.024V16.928H103.224V20.4H108.664V22H101.624V10.8H108.664ZM112.818 22H111.218V18.32L113.938 10.8H115.538L118.258 18.32V22H116.658V19.408H112.818V22ZM113.106 17.808H116.37L114.754 13.328H114.722L113.106 17.808ZM122.411 22H120.811V10.8H122.411V15.6H123.019L125.963 10.8H127.851L124.411 16.4L127.851 22H125.963L123.019 17.2H122.411V22ZM147.039 14.64C147.039 16.24 145.759 17.52 144.159 17.52H141.599V22H139.999V10.8H144.159C145.759 10.8 147.039 12.08 147.039 13.68V14.64ZM141.599 15.92H144.159C144.879 15.92 145.439 15.36 145.439 14.64V13.68C145.439 12.96 144.879 12.4 144.159 12.4H141.599V15.92ZM156.633 10.8V12.4H151.193V15.328H155.993V16.928H151.193V20.4H156.633V22H149.593V10.8H156.633ZM166.226 10.8V12.4H160.786V15.328H165.586V16.928H160.786V20.4H166.226V22H159.186V10.8H166.226ZM170.38 22H168.78V10.8H170.38V15.6H170.988L173.932 10.8H175.82L172.38 16.4L175.82 22H173.932L170.988 17.2H170.38V22Z" fill="#45E871"/>
</svg>
