<svg width="96" height="31" viewBox="0 0 96 31" fill="none" xmlns="http://www.w3.org/2000/svg">
<mask id="path-1-inside-1_1494_51" fill="white">
<path fill-rule="evenodd" clip-rule="evenodd" d="M91.907 0H3.72096V3H0V27.6667H3.72096V31H91.907V27.6667H96V3H91.907V0Z"/>
</mask>
<path fill-rule="evenodd" clip-rule="evenodd" d="M91.907 0H3.72096V3H0V27.6667H3.72096V31H91.907V27.6667H96V3H91.907V0Z" fill="black"/>
<path d="M3.72096 0V-1H2.72096V0H3.72096ZM91.907 0H92.907V-1H91.907V0ZM3.72096 3V4H4.72096V3H3.72096ZM0 3V2H-1V3H0ZM0 27.6667H-1V28.6667H0V27.6667ZM3.72096 27.6667H4.72096V26.6667H3.72096V27.6667ZM3.72096 31H2.72096V32H3.72096V31ZM91.907 31V32H92.907V31H91.907ZM91.907 27.6667V26.6667H90.907V27.6667H91.907ZM96 27.6667V28.6667H97V27.6667H96ZM96 3H97V2H96V3ZM91.907 3H90.907V4H91.907V3ZM3.72096 1H91.907V-1H3.72096V1ZM4.72096 3V0H2.72096V3H4.72096ZM0 4H3.72096V2H0V4ZM1 27.6667V3H-1V27.6667H1ZM3.72096 26.6667H0V28.6667H3.72096V26.6667ZM4.72096 31V27.6667H2.72096V31H4.72096ZM91.907 30H3.72096V32H91.907V30ZM90.907 27.6667V31H92.907V27.6667H90.907ZM96 26.6667H91.907V28.6667H96V26.6667ZM95 3V27.6667H97V3H95ZM91.907 4H96V2H91.907V4ZM90.907 0V3H92.907V0H90.907Z" fill="#45E871" mask="url(#path-1-inside-1_1494_51)"/>
</svg>
