<svg width="1417" height="853" viewBox="0 0 1417 853" fill="none" xmlns="http://www.w3.org/2000/svg">
<path d="M1665.16 348.611C1665.97 352.32 1666.52 356.058 1666.79 359.822L1663.93 360.031C1664.06 361.848 1664.13 363.671 1664.13 365.5C1664.13 367.329 1664.06 369.152 1663.93 370.969L1666.79 371.178C1666.52 374.942 1665.97 378.68 1665.16 382.389L1662.35 381.773C1661.58 385.301 1660.55 388.807 1659.28 392.289L1661.98 393.272C1660.7 396.769 1659.19 400.237 1657.45 403.673L1654.89 402.374C1653.26 405.586 1651.42 408.776 1649.37 411.941L1651.78 413.501C1649.77 416.606 1647.57 419.683 1645.19 422.728L1642.93 420.958C1640.7 423.806 1638.3 426.631 1635.74 429.43L1637.85 431.369C1635.36 434.094 1632.71 436.792 1629.92 439.461L1627.94 437.385C1625.3 439.902 1622.53 442.396 1619.63 444.865L1621.49 447.051C1618.67 449.456 1615.72 451.836 1612.65 454.189L1610.91 451.911C1607.99 454.152 1604.95 456.371 1601.82 458.565L1603.46 460.918C1600.42 463.045 1597.28 465.148 1594.04 467.226L1592.49 464.81C1589.4 466.794 1586.22 468.756 1582.95 470.696L1584.42 473.165C1581.21 475.068 1577.92 476.949 1574.55 478.806L1573.17 476.292C1569.91 478.089 1566.57 479.864 1563.16 481.618L1564.47 484.171C1561.18 485.866 1557.81 487.54 1554.38 489.192L1553.13 486.605C1549.79 488.215 1546.38 489.805 1542.9 491.374L1544.09 493.99C1540.66 495.536 1537.18 497.061 1533.64 498.566L1532.52 495.923C1529.11 497.369 1525.65 498.796 1522.14 500.203L1523.21 502.868C1519.72 504.263 1516.18 505.639 1512.6 506.995L1511.58 504.31C1508.1 505.625 1504.57 506.922 1500.99 508.2L1501.95 510.904C1498.43 512.162 1494.86 513.401 1491.24 514.622L1490.33 511.901C1486.77 513.1 1483.18 514.281 1479.54 515.443L1480.41 518.178C1476.86 519.313 1473.26 520.431 1469.63 521.53L1468.8 518.782C1465.2 519.87 1461.56 520.941 1457.88 521.993L1458.67 524.753C1455.09 525.78 1451.46 526.79 1447.8 527.781L1447.05 525.01C1443.42 525.993 1439.76 526.958 1436.07 527.905L1436.78 530.686C1433.16 531.616 1429.5 532.529 1425.81 533.424L1425.13 530.634C1421.48 531.52 1417.8 532.388 1414.09 533.239L1414.73 536.037C1411.08 536.876 1407.39 537.697 1403.68 538.502L1403.07 535.696C1399.4 536.491 1395.7 537.269 1391.98 538.031L1392.55 540.844C1388.87 541.595 1385.17 542.33 1381.44 543.049L1380.89 540.229C1377.2 540.94 1373.49 541.634 1369.75 542.311L1370.26 545.136C1366.56 545.805 1362.84 546.458 1359.1 547.095L1358.62 544.264C1354.91 544.895 1351.18 545.509 1347.42 546.107L1347.87 548.942C1344.17 549.532 1340.44 550.107 1336.68 550.665L1336.26 547.825C1332.53 548.379 1328.79 548.917 1325.02 549.439L1325.41 552.283C1321.69 552.798 1317.96 553.297 1314.2 553.779L1313.83 550.932C1310.09 551.413 1306.33 551.878 1302.55 552.326L1302.89 555.178C1299.16 555.62 1295.42 556.046 1291.66 556.457L1291.35 553.602C1287.59 554.012 1283.82 554.406 1280.04 554.783L1280.32 557.64C1276.59 558.012 1272.83 558.369 1269.07 558.71L1268.81 555.851C1265.05 556.191 1261.28 556.515 1257.5 556.823L1257.73 559.684C1253.98 559.99 1250.21 560.279 1246.43 560.553L1246.22 557.69C1242.47 557.961 1238.7 558.218 1234.92 558.458L1235.1 561.324C1231.34 561.563 1227.56 561.787 1223.77 561.995L1223.61 559.128C1219.86 559.334 1216.09 559.524 1212.31 559.699L1212.44 562.567C1208.67 562.741 1204.88 562.9 1201.07 563.044L1200.97 560.175C1197.21 560.316 1193.45 560.442 1189.68 560.552L1189.76 563.422C1185.98 563.532 1182.19 563.627 1178.38 563.706L1178.32 560.836C1174.57 560.914 1170.8 560.976 1167.03 561.023L1167.06 563.894C1163.29 563.941 1159.5 563.972 1155.7 563.988L1155.69 561.117C1153.8 561.125 1151.9 561.129 1150 561.129C1148.1 561.129 1146.2 561.125 1144.31 561.117L1144.3 563.988C1140.5 563.972 1136.71 563.941 1132.94 563.894L1132.97 561.023C1129.2 560.976 1125.43 560.914 1121.68 560.836L1121.62 563.706C1117.81 563.627 1114.02 563.532 1110.24 563.422L1110.32 560.552C1106.55 560.442 1102.79 560.316 1099.03 560.175L1098.93 563.044C1095.12 562.9 1091.33 562.741 1087.56 562.567L1087.69 559.699C1083.91 559.524 1080.14 559.334 1076.39 559.128L1076.23 561.995C1072.44 561.787 1068.66 561.563 1064.9 561.323L1065.08 558.458C1061.3 558.218 1057.53 557.961 1053.77 557.69L1053.57 560.553C1049.79 560.279 1046.02 559.99 1042.27 559.684L1042.5 556.823C1038.72 556.515 1034.95 556.191 1031.19 555.851L1030.93 558.71C1027.17 558.369 1023.41 558.012 1019.68 557.64L1019.96 554.783C1016.18 554.405 1012.41 554.012 1008.65 553.602L1008.34 556.457C1004.58 556.046 1000.84 555.62 997.114 555.178L997.452 552.326C993.672 551.878 989.91 551.413 986.167 550.932L985.801 553.779C982.043 553.297 978.305 552.798 974.587 552.283L974.981 549.439C971.213 548.917 967.465 548.379 963.739 547.825L963.316 550.665C959.565 550.107 955.834 549.532 952.125 548.942L952.577 546.107C948.822 545.509 945.09 544.895 941.381 544.264L940.9 547.095C937.157 546.458 933.437 545.805 929.741 545.136L930.253 542.311C926.512 541.634 922.796 540.94 919.106 540.229L918.563 543.049C914.832 542.33 911.128 541.595 907.449 540.844L908.024 538.031C904.298 537.269 900.599 536.491 896.929 535.696L896.321 538.502C892.607 537.697 888.923 536.876 885.267 536.037L885.909 533.239C882.198 532.388 878.518 531.52 874.868 530.634L874.191 533.424C870.501 532.529 866.843 531.616 863.217 530.686L863.93 527.905C860.235 526.958 856.575 525.993 852.95 525.01L852.199 527.781C848.539 526.79 844.915 525.78 841.326 524.753L842.116 521.993C838.441 520.941 834.803 519.871 831.204 518.782L830.373 521.53C826.738 520.431 823.142 519.314 819.586 518.178L820.459 515.443C816.821 514.281 813.226 513.1 809.675 511.901L808.756 514.622C805.141 513.401 801.571 512.162 798.047 510.904L799.012 508.2C795.433 506.922 791.902 505.625 788.42 504.31L787.405 506.995C783.816 505.639 780.278 504.263 776.793 502.868L777.86 500.203C774.346 498.796 770.886 497.369 767.482 495.923L766.36 498.566C762.818 497.061 759.336 495.536 755.914 493.99L757.095 491.374C753.621 489.805 750.211 488.215 746.866 486.605L745.621 489.192C742.188 487.54 738.822 485.866 735.525 484.171L736.838 481.618C733.426 479.864 730.09 478.089 726.831 476.292L725.445 478.806C722.076 476.949 718.788 475.068 715.582 473.165L717.047 470.696C713.779 468.756 710.6 466.794 707.51 464.81L705.959 467.226C702.722 465.148 699.581 463.045 696.539 460.918L698.184 458.565C695.045 456.371 692.014 454.152 689.094 451.911L687.346 454.189C684.28 451.836 681.333 449.456 678.507 447.051L680.367 444.865C677.466 442.396 674.697 439.902 672.064 437.385L670.08 439.461C667.287 436.792 664.641 434.094 662.145 431.369L664.262 429.43C661.698 426.63 659.3 423.806 657.071 420.958L654.81 422.728C652.426 419.682 650.227 416.606 648.218 413.501L650.629 411.941C648.581 408.776 646.741 405.586 645.111 402.373L642.551 403.672C640.807 400.237 639.295 396.769 638.02 393.272L640.717 392.289C639.448 388.807 638.423 385.301 637.649 381.773L634.845 382.389C634.031 378.68 633.483 374.942 633.207 371.178L636.071 370.969C635.938 369.152 635.871 367.329 635.871 365.5C635.871 363.671 635.938 361.848 636.071 360.031L633.207 359.822C633.483 356.058 634.031 352.32 634.845 348.611L637.649 349.227C638.423 345.699 639.448 342.193 640.717 338.711L638.02 337.728C639.295 334.231 640.807 330.763 642.551 327.327L645.111 328.626C646.741 325.414 648.581 322.224 650.629 319.059L648.218 317.499C650.227 314.394 652.426 311.317 654.81 308.272L657.071 310.041C659.3 307.194 661.698 304.369 664.262 301.57L662.145 299.631C664.641 296.906 667.287 294.208 670.08 291.539L672.064 293.615C674.697 291.098 677.466 288.604 680.368 286.135L678.507 283.949C681.333 281.544 684.281 279.164 687.346 276.811L689.094 279.089C692.015 276.848 695.045 274.629 698.184 272.435L696.539 270.082C699.581 267.955 702.722 265.852 705.959 263.774L707.51 266.19C710.6 264.206 713.78 262.244 717.047 260.304L715.582 257.835C718.788 255.932 722.076 254.051 725.445 252.194L726.832 254.708C730.091 252.911 733.427 251.136 736.838 249.382L735.525 246.829C738.822 245.134 742.188 243.46 745.621 241.808L746.866 244.395C750.211 242.785 753.622 241.195 757.095 239.626L755.914 237.01C759.336 235.464 762.818 233.939 766.36 232.434L767.482 235.077C770.886 233.631 774.346 232.204 777.86 230.797L776.793 228.132C780.278 226.737 783.816 225.361 787.405 224.005L788.42 226.69C791.902 225.375 795.433 224.078 799.012 222.8L798.047 220.096C801.571 218.838 805.141 217.599 808.756 216.378L809.675 219.099C813.226 217.9 816.821 216.719 820.459 215.557L819.586 212.822C823.142 211.687 826.738 210.569 830.373 209.47L831.204 212.218C834.803 211.129 838.441 210.059 842.116 209.007L841.326 206.247C844.915 205.22 848.539 204.21 852.198 203.219L852.949 205.99C856.575 205.007 860.235 204.042 863.93 203.095L863.217 200.314C866.843 199.384 870.501 198.471 874.191 197.576L874.868 200.366C878.518 199.48 882.198 198.612 885.909 197.761L885.267 194.963C888.923 194.124 892.607 193.303 896.321 192.498L896.929 195.304C900.599 194.509 904.298 193.731 908.024 192.969L907.449 190.156C911.128 189.405 914.832 188.67 918.563 187.951L919.106 190.771C922.796 190.06 926.512 189.366 930.253 188.689L929.741 185.864C933.437 185.195 937.157 184.542 940.9 183.905L941.381 186.736C945.09 186.105 948.822 185.491 952.577 184.893L952.125 182.058C955.834 181.468 959.565 180.893 963.316 180.335L963.739 183.175C967.465 182.621 971.213 182.083 974.981 181.561L974.587 178.717C978.305 178.202 982.043 177.703 985.801 177.221L986.167 180.068C989.91 179.587 993.672 179.122 997.452 178.674L997.114 175.822C1000.84 175.38 1004.58 174.954 1008.34 174.543L1008.65 177.398C1012.41 176.988 1016.18 176.594 1019.96 176.217L1019.68 173.36C1023.41 172.988 1027.17 172.631 1030.93 172.29L1031.19 175.149C1034.95 174.809 1038.72 174.485 1042.5 174.177L1042.27 171.316C1046.02 171.01 1049.79 170.721 1053.57 170.447L1053.78 173.31C1057.53 173.039 1061.3 172.782 1065.08 172.542L1064.9 169.676C1068.66 169.437 1072.44 169.213 1076.23 169.005L1076.39 171.872C1080.14 171.666 1083.91 171.476 1087.69 171.301L1087.56 168.433C1091.33 168.259 1095.12 168.1 1098.93 167.956L1099.04 170.825C1102.79 170.684 1106.55 170.558 1110.32 170.448L1110.24 167.578C1114.02 167.468 1117.81 167.373 1121.62 167.294L1121.68 170.165C1125.43 170.086 1129.2 170.024 1132.97 169.977L1132.94 167.106C1136.71 167.059 1140.5 167.028 1144.3 167.012L1144.31 169.883C1146.2 169.875 1148.1 169.871 1150 169.871C1151.9 169.871 1153.8 169.875 1155.69 169.883L1155.7 167.012C1159.5 167.028 1163.29 167.059 1167.06 167.106L1167.03 169.977C1170.8 170.024 1174.57 170.086 1178.32 170.165L1178.38 167.294C1182.19 167.373 1185.98 167.468 1189.76 167.578L1189.68 170.448C1193.45 170.558 1197.21 170.684 1200.97 170.825L1201.07 167.956C1204.88 168.1 1208.67 168.259 1212.44 168.433L1212.31 171.301C1216.09 171.476 1219.86 171.666 1223.61 171.872L1223.77 169.005C1227.56 169.213 1231.34 169.437 1235.1 169.676L1234.92 172.542C1238.7 172.782 1242.47 173.039 1246.23 173.31L1246.43 170.447C1250.21 170.721 1253.98 171.01 1257.73 171.316L1257.5 174.177C1261.28 174.485 1265.05 174.809 1268.81 175.149L1269.07 172.29C1272.83 172.631 1276.59 172.988 1280.32 173.36L1280.04 176.217C1283.82 176.594 1287.59 176.988 1291.35 177.398L1291.66 174.543C1295.42 174.954 1299.16 175.38 1302.89 175.822L1302.55 178.674C1306.33 179.122 1310.09 179.587 1313.83 180.068L1314.2 177.221C1317.96 177.703 1321.69 178.202 1325.41 178.717L1325.02 181.561C1328.79 182.083 1332.53 182.621 1336.26 183.175L1336.68 180.335C1340.44 180.893 1344.17 181.468 1347.87 182.058L1347.42 184.893C1351.18 185.491 1354.91 186.105 1358.62 186.736L1359.1 183.905C1362.84 184.542 1366.56 185.195 1370.26 185.864L1369.75 188.689C1373.49 189.366 1377.2 190.06 1380.89 190.771L1381.44 187.951C1385.17 188.67 1388.87 189.405 1392.55 190.156L1391.98 192.969C1395.7 193.731 1399.4 194.509 1403.07 195.304L1403.68 192.498C1407.39 193.303 1411.08 194.124 1414.73 194.963L1414.09 197.761C1417.8 198.612 1421.48 199.48 1425.13 200.366L1425.81 197.576C1429.5 198.471 1433.16 199.384 1436.78 200.314L1436.07 203.095C1439.76 204.042 1443.42 205.007 1447.05 205.99L1447.8 203.219C1451.46 204.21 1455.09 205.22 1458.67 206.247L1457.88 209.007C1461.56 210.059 1465.2 211.129 1468.8 212.218L1469.63 209.47C1473.26 210.569 1476.86 211.687 1480.41 212.822L1479.54 215.557C1483.18 216.719 1486.77 217.9 1490.33 219.099L1491.24 216.378C1494.86 217.599 1498.43 218.838 1501.95 220.096L1500.99 222.8C1504.57 224.078 1508.1 225.375 1511.58 226.69L1512.6 224.005C1516.18 225.361 1519.72 226.737 1523.21 228.132L1522.14 230.797C1525.65 232.204 1529.11 233.631 1532.52 235.077L1533.64 232.434C1537.18 233.939 1540.66 235.464 1544.09 237.01L1542.9 239.626C1546.38 241.195 1549.79 242.785 1553.13 244.395L1554.38 241.808C1557.81 243.46 1561.18 245.134 1564.47 246.829L1563.16 249.382C1566.57 251.136 1569.91 252.912 1573.17 254.708L1574.55 252.194C1577.92 254.051 1581.21 255.932 1584.42 257.835L1582.95 260.304C1586.22 262.244 1589.4 264.206 1592.49 266.19L1594.04 263.774C1597.28 265.852 1600.42 267.955 1603.46 270.082L1601.82 272.435C1604.95 274.629 1607.99 276.848 1610.91 279.089L1612.65 276.811C1615.72 279.164 1618.67 281.544 1621.49 283.949L1619.63 286.135C1622.53 288.604 1625.3 291.098 1627.94 293.615L1629.92 291.539C1632.71 294.208 1635.36 296.906 1637.85 299.631L1635.74 301.57C1638.3 304.369 1640.7 307.194 1642.93 310.042L1645.19 308.272C1647.57 311.318 1649.77 314.394 1651.78 317.499L1649.37 319.059C1651.42 322.224 1653.26 325.414 1654.89 328.627L1657.45 327.328C1659.19 330.763 1660.7 334.231 1661.98 337.728L1659.28 338.711C1660.55 342.193 1661.58 345.699 1662.35 349.227L1665.16 348.611Z" stroke="white" stroke-width="5.74211" stroke-dasharray="11.48 11.48"/>
<g filter="url(#filter0_d_1315_100)">
<path d="M1680.13 374C1680.13 413.779 1661.68 451.903 1627.85 486.83C1594.01 521.77 1544.91 553.368 1484 579.965C1362.2 633.157 1193.73 666.129 1007.5 666.129C821.265 666.129 652.799 633.157 530.998 579.965C470.094 553.368 420.987 521.77 387.146 486.83C353.319 451.903 334.871 413.779 334.871 374C334.871 334.221 353.319 296.097 387.146 261.17C420.987 226.23 470.094 194.632 530.998 168.035C652.799 114.843 821.265 81.8711 1007.5 81.8711C1193.73 81.8711 1362.2 114.843 1484 168.035C1544.91 194.632 1594.01 226.23 1627.85 261.17C1661.68 296.097 1680.13 334.221 1680.13 374Z" stroke="white" stroke-width="5.74211" shape-rendering="crispEdges"/>
</g>
<path d="M1816.27 409.22C1816.59 413.041 1816.81 416.875 1816.92 420.721L1814.05 420.802C1814.1 422.699 1814.13 424.598 1814.13 426.5C1814.13 428.402 1814.1 430.301 1814.05 432.198L1816.92 432.279C1816.81 436.125 1816.59 439.959 1816.27 443.78L1813.41 443.538C1813.09 447.309 1812.66 451.068 1812.13 454.813L1814.97 455.216C1814.43 459.017 1813.79 462.805 1813.04 466.578L1810.23 466.019C1809.49 469.721 1808.65 473.409 1807.72 477.084L1810.5 477.794C1809.55 481.51 1808.5 485.21 1807.35 488.896L1804.61 488.04C1803.48 491.633 1802.27 495.212 1800.95 498.777L1803.64 499.77C1802.32 503.367 1800.9 506.947 1799.38 510.512L1796.74 509.388C1795.27 512.844 1793.71 516.287 1792.05 519.714L1794.64 520.96C1792.98 524.413 1791.23 527.849 1789.39 531.269L1786.86 529.909C1785.08 533.214 1783.22 536.505 1781.27 539.781L1783.74 541.246C1781.79 544.539 1779.75 547.816 1777.63 551.076L1775.23 549.512C1773.18 552.662 1771.06 555.796 1768.86 558.916L1771.21 560.57C1769 563.695 1766.73 566.804 1764.37 569.897L1762.09 568.159C1759.81 571.157 1757.46 574.139 1755.04 577.107L1757.27 578.921C1754.86 581.876 1752.38 584.815 1749.83 587.739L1747.67 585.854C1745.18 588.707 1742.64 591.546 1740.02 594.369L1742.13 596.319C1739.55 599.107 1736.91 601.879 1734.2 604.635L1732.15 602.625C1729.49 605.345 1726.76 608.049 1723.98 610.739L1725.97 612.804C1723.25 615.43 1720.47 618.041 1717.64 620.636L1715.7 618.52C1712.89 621.099 1710.02 623.663 1707.1 626.211L1708.98 628.375C1706.13 630.864 1703.23 633.337 1700.27 635.795L1698.44 633.588C1695.52 636.016 1692.55 638.428 1689.53 640.827L1691.32 643.074C1688.33 645.454 1685.28 647.819 1682.2 650.168L1680.46 647.883C1677.46 650.167 1674.41 652.437 1671.32 654.692L1673.01 657.011C1669.9 659.278 1666.75 661.53 1663.55 663.766L1661.91 661.414C1658.82 663.576 1655.69 665.725 1652.52 667.859L1654.12 670.241C1650.95 672.371 1647.75 674.487 1644.5 676.588L1642.94 674.178C1639.73 676.257 1636.48 678.323 1633.19 680.373L1634.71 682.81C1631.5 684.812 1628.25 686.8 1624.97 688.775L1623.49 686.314C1620.22 688.281 1616.91 690.234 1613.56 692.173L1615 694.657C1611.7 696.574 1608.36 698.478 1604.98 700.367L1603.58 697.862C1600.28 699.711 1596.94 701.546 1593.57 703.369L1594.94 705.894C1591.56 707.722 1588.15 709.537 1584.7 711.339L1583.37 708.794C1580.01 710.553 1576.61 712.299 1573.19 714.031L1574.48 716.593C1571.09 718.311 1567.66 720.016 1564.2 721.708L1562.94 719.129C1559.49 720.815 1556.02 722.488 1552.52 724.148L1553.74 726.743C1550.31 728.371 1546.84 729.986 1543.35 731.589L1542.15 728.979C1538.7 730.563 1535.22 732.134 1531.71 733.693L1532.87 736.317C1529.36 737.88 1525.81 739.43 1522.24 740.966L1521.11 738.329C1517.62 739.829 1514.11 741.317 1510.57 742.792L1511.68 745.442C1508.16 746.909 1504.62 748.364 1501.05 749.806L1499.97 747.144C1496.42 748.583 1492.83 750.008 1489.23 751.421L1490.28 754.094C1486.73 755.485 1483.15 756.864 1479.55 758.231L1478.53 755.547C1474.98 756.896 1471.41 758.233 1467.81 759.558L1468.8 762.252C1465.2 763.58 1461.57 764.896 1457.92 766.199L1456.95 763.495C1453.36 764.779 1449.74 766.05 1446.1 767.309L1447.04 770.023C1443.44 771.267 1439.83 772.5 1436.19 773.72L1435.28 770.998C1431.65 772.215 1428 773.42 1424.33 774.613L1425.22 777.344C1421.56 778.533 1417.89 779.71 1414.19 780.875L1413.33 778.137C1409.71 779.276 1406.08 780.404 1402.42 781.519L1403.26 784.265C1399.6 785.383 1395.92 786.489 1392.23 787.583L1391.41 784.83C1387.72 785.922 1384.02 787.001 1380.29 788.068L1381.08 790.828C1377.42 791.876 1373.75 792.912 1370.06 793.936L1369.29 791.17C1365.62 792.189 1361.93 793.196 1358.22 794.191L1358.97 796.964C1355.25 797.961 1351.52 798.946 1347.78 799.919L1347.06 797.141C1343.35 798.102 1339.64 799.052 1335.9 799.99L1336.6 802.775C1332.91 803.703 1329.2 804.62 1325.47 805.525L1324.8 802.735C1321.08 803.638 1317.34 804.53 1313.6 805.41L1314.25 808.205C1310.5 809.086 1306.73 809.956 1302.94 810.813L1302.31 808.013C1298.61 808.852 1294.89 809.68 1291.16 810.496L1291.77 813.301C1288.04 814.118 1284.29 814.923 1280.53 815.717L1279.93 812.907C1276.18 813.7 1272.41 814.48 1268.63 815.249L1269.2 818.062C1265.44 818.827 1261.67 819.58 1257.88 820.321L1257.33 817.503C1253.6 818.234 1249.85 818.954 1246.09 819.662L1246.62 822.483C1242.86 823.192 1239.08 823.89 1235.29 824.576L1234.78 821.751C1230.99 822.436 1227.2 823.11 1223.39 823.771L1223.88 826.6C1220.12 827.254 1216.34 827.897 1212.56 828.528L1212.09 825.696C1208.32 826.323 1204.55 826.938 1200.77 827.543L1201.22 830.378C1197.43 830.983 1193.63 831.577 1189.81 832.159L1189.38 829.321C1185.58 829.902 1181.76 830.472 1177.93 831.03L1178.35 833.871C1174.58 834.42 1170.8 834.959 1167.01 835.486L1166.62 832.642C1162.83 833.168 1159.04 833.683 1155.24 834.187L1155.61 837.033C1151.8 837.537 1147.98 838.03 1144.15 838.512L1143.8 835.663C1139.99 836.142 1136.17 836.61 1132.34 837.066L1132.68 839.917C1128.89 840.368 1125.1 840.808 1121.29 841.237L1120.97 838.384C1117.17 838.812 1113.36 839.229 1109.54 839.634L1109.85 842.489C1106.02 842.896 1102.19 843.29 1098.34 843.674L1098.06 840.817C1094.25 841.198 1090.43 841.567 1086.6 841.925L1086.86 844.783C1083.06 845.139 1079.25 845.483 1075.43 845.816L1075.18 842.955C1071.37 843.288 1067.55 843.609 1063.72 843.919L1063.95 846.781C1060.12 847.091 1056.28 847.39 1052.42 847.678L1052.21 844.815C1048.39 845.1 1044.57 845.374 1040.74 845.637L1040.93 848.501C1037.12 848.763 1033.3 849.013 1029.47 849.252L1029.3 846.386C1025.47 846.625 1021.65 846.853 1017.81 847.069L1017.97 849.935C1014.13 850.152 1010.28 850.357 1006.42 850.551L1006.28 847.684C1002.46 847.876 998.63 848.057 994.794 848.227L994.921 851.095C991.102 851.265 987.277 851.423 983.444 851.57L983.334 848.701C979.508 848.847 975.674 848.983 971.834 849.107L971.927 851.977C968.082 852.101 964.229 852.214 960.371 852.316L960.295 849.446C956.469 849.548 952.637 849.638 948.798 849.716L948.857 852.587C945.034 852.665 941.206 852.733 937.371 852.789L937.329 849.918C933.5 849.974 929.664 850.019 925.823 850.053L925.849 852.924C922.002 852.958 918.15 852.98 914.292 852.992L914.283 850.12C913.459 850.123 912.635 850.125 911.811 850.126C910.708 850.128 909.604 850.129 908.5 850.129C906.571 850.129 904.643 850.126 902.717 850.12L902.708 852.992C898.85 852.98 894.998 852.958 891.151 852.924L891.176 850.053C887.335 850.019 883.5 849.974 879.671 849.918L879.629 852.789C875.794 852.732 871.965 852.665 868.143 852.587L868.202 849.716C864.363 849.638 860.531 849.548 856.705 849.446L856.629 852.316C852.77 852.214 848.918 852.101 845.073 851.977L845.165 849.107C841.326 848.983 837.492 848.847 833.666 848.701L833.556 851.57C829.723 851.423 825.898 851.265 822.079 851.095L822.206 848.227C818.37 848.057 814.542 847.876 810.72 847.684L810.576 850.551C806.719 850.357 802.87 850.152 799.028 849.935L799.19 847.069C795.354 846.853 791.525 846.625 787.704 846.386L787.525 849.252C783.698 849.013 779.879 848.763 776.067 848.501L776.263 845.637C772.431 845.374 768.606 845.1 764.789 844.815L764.575 847.678C760.724 847.39 756.881 847.091 753.046 846.781L753.277 843.919C749.448 843.609 745.628 843.288 741.815 842.955L741.566 845.816C737.747 845.483 733.938 845.139 730.136 844.783L730.403 841.925C726.573 841.567 722.752 841.198 718.94 840.817L718.655 843.674C714.812 843.29 710.979 842.896 707.154 842.489L707.458 839.634C703.639 839.229 699.83 838.812 696.03 838.384L695.709 841.237C691.903 840.808 688.106 840.368 684.319 839.917L684.659 837.066C680.831 836.61 677.013 836.142 673.205 835.663L672.846 838.512C669.017 838.03 665.196 837.537 661.387 837.033L661.763 834.187C657.96 833.683 654.166 833.168 650.383 832.642L649.988 835.486C646.199 834.959 642.419 834.42 638.651 833.871L639.065 831.03C635.239 830.472 631.423 829.902 627.619 829.321L627.185 832.159C623.372 831.577 619.571 830.983 615.78 830.378L616.233 827.543C612.449 826.938 608.676 826.323 604.915 825.696L604.443 828.528C600.656 827.897 596.882 827.254 593.119 826.6L593.61 823.771C589.802 823.11 586.006 822.436 582.223 821.751L581.711 824.576C577.921 823.89 574.143 823.192 570.377 822.483L570.909 819.662C567.15 818.954 563.404 818.234 559.67 817.503L559.118 820.321C555.332 819.58 551.558 818.827 547.798 818.062L548.37 815.249C544.588 814.48 540.82 813.7 537.065 812.907L536.473 815.717C532.711 814.923 528.963 814.118 525.229 813.301L525.843 810.496C522.112 809.68 518.394 808.852 514.691 808.013L514.057 810.813C510.272 809.956 506.502 809.086 502.747 808.205L503.403 805.41C499.656 804.53 495.923 803.638 492.205 802.735L491.527 805.525C487.802 804.62 484.091 803.703 480.397 802.775L481.096 799.99C477.363 799.052 473.645 798.102 469.944 797.14L469.222 799.919C465.476 798.946 461.746 797.961 458.033 796.964L458.778 794.191C455.072 793.196 451.383 792.189 447.711 791.17L446.943 793.936C443.252 792.912 439.577 791.876 435.919 790.828L436.71 788.068C432.985 787.001 429.278 785.922 425.588 784.83L424.774 787.583C421.077 786.489 417.398 785.383 413.737 784.265L414.575 781.519C410.922 780.404 407.288 779.276 403.672 778.137L402.809 780.875C399.112 779.71 395.435 778.533 391.778 777.344L392.666 774.613C388.998 773.42 385.35 772.215 381.722 770.998L380.809 773.72C377.172 772.5 373.555 771.267 369.959 770.023L370.898 767.309C367.259 766.05 363.642 764.779 360.045 763.495L359.08 766.199C355.431 764.896 351.803 763.58 348.197 762.252L349.19 759.558C345.593 758.233 342.018 756.896 338.466 755.547L337.446 758.231C333.849 756.864 330.275 755.485 326.723 754.094L327.77 751.421C324.165 750.008 320.584 748.583 317.027 747.144L315.95 749.806C312.384 748.364 308.841 746.909 305.323 745.442L306.428 742.792C302.892 741.317 299.38 739.829 295.894 738.329L294.759 740.966C291.188 739.43 287.644 737.88 284.126 736.317L285.292 733.693C281.784 732.134 278.303 730.563 274.849 728.979L273.652 731.588C270.159 729.986 266.693 728.371 263.255 726.743L264.484 724.148C260.98 722.488 257.505 720.815 254.059 719.129L252.797 721.708C249.341 720.016 245.913 718.311 242.516 716.593L243.812 714.031C240.386 712.299 236.991 710.553 233.627 708.794L232.297 711.339C228.852 709.537 225.44 707.722 222.059 705.894L223.426 703.369C220.058 701.546 216.722 699.711 213.42 697.862L212.017 700.367C208.643 698.478 205.302 696.574 201.996 694.657L203.436 692.173C200.093 690.234 196.785 688.281 193.513 686.314L192.034 688.775C188.75 686.8 185.501 684.812 182.29 682.81L183.809 680.373C180.519 678.323 177.269 676.257 174.058 674.178L172.497 676.588C169.251 674.487 166.046 672.371 162.88 670.241L164.483 667.859C161.311 665.725 158.181 663.576 155.092 661.414L153.446 663.766C150.25 661.53 147.099 659.278 143.991 657.011L145.683 654.692C142.592 652.437 139.544 650.167 136.542 647.883L134.804 650.168C131.715 647.819 128.674 645.454 125.68 643.074L127.466 640.827C124.45 638.428 121.482 636.016 118.564 633.588L116.728 635.795C113.773 633.337 110.869 630.864 108.015 628.375L109.902 626.211C106.98 623.663 104.111 621.099 101.298 618.52L99.358 620.636C96.527 618.041 93.7509 615.43 91.0306 612.804L93.0245 610.739C90.2385 608.049 87.5119 605.345 84.8453 602.625L82.7953 604.635C80.0925 601.879 77.4505 599.107 74.8701 596.319L76.9771 594.369C74.3641 591.545 71.8152 588.707 69.3313 585.854L67.1658 587.739C64.6212 584.815 62.1436 581.876 59.7342 578.921L61.9593 577.106C59.5401 574.139 57.1905 571.157 54.9115 568.159L52.626 569.897C50.2747 566.804 47.9974 563.695 45.7949 560.57L48.1417 558.916C45.9431 555.796 43.8204 552.661 41.7745 549.512L39.3668 551.076C37.2491 547.816 35.2124 544.539 33.2578 541.246L35.7266 539.78C33.7822 536.505 31.9204 533.214 30.1421 529.909L27.6137 531.269C25.7738 527.849 24.0218 524.413 22.359 520.96L24.9457 519.714C23.2949 516.287 21.7335 512.844 20.2625 509.388L17.6207 510.512C16.1039 506.947 14.6816 503.366 13.3554 499.77L16.0491 498.777C14.7344 495.212 13.5154 491.633 12.3934 488.04L9.65288 488.896C8.50212 485.21 7.45176 481.51 6.50314 477.794L9.28495 477.084C8.34668 473.409 7.50945 469.721 6.77453 466.019L3.95843 466.578C3.20935 462.805 2.56498 459.017 2.02668 455.216L4.86938 454.813C4.33893 451.068 3.91299 447.309 3.59287 443.538L0.7321 443.78C0.40775 439.959 0.190489 436.125 0.0816869 432.279L2.95159 432.198C2.89796 430.301 2.87106 428.402 2.87106 426.5C2.87106 424.598 2.89796 422.699 2.9516 420.802L0.0816882 420.721C0.190491 416.875 0.407752 413.041 0.732103 409.22L3.59287 409.462C3.91299 405.691 4.33894 401.932 4.86938 398.187L2.02669 397.784C2.56498 393.983 3.20936 390.195 3.95843 386.422L6.77453 386.981C7.50946 383.279 8.34669 379.591 9.28496 375.916L6.50315 375.206C7.45177 371.49 8.50213 367.79 9.65289 364.104L12.3934 364.96C13.5154 361.367 14.7344 357.788 16.0491 354.223L13.3554 353.23C14.6817 349.633 16.1039 346.053 17.6207 342.488L20.2625 343.612C21.7335 340.156 23.2949 336.713 24.9457 333.286L22.359 332.04C24.0218 328.587 25.7738 325.151 27.6137 321.731L30.1421 323.091C31.9204 319.786 33.7822 316.495 35.7266 313.219L33.2578 311.754C35.2125 308.461 37.2491 305.184 39.3668 301.924L41.7745 303.488C43.8204 300.338 45.9431 297.204 48.1417 294.084L45.7949 292.43C47.9974 289.305 50.2748 286.196 52.626 283.103L54.9115 284.841C57.1905 281.843 59.5401 278.861 61.9594 275.893L59.7342 274.079C62.1437 271.124 64.6212 268.185 67.1658 265.261L69.3313 267.146C71.8152 264.293 74.3641 261.454 76.9771 258.631L74.8701 256.681C77.4505 253.893 80.0925 251.121 82.7953 248.365L84.8453 250.375C87.5119 247.655 90.2385 244.95 93.0245 242.261L91.0306 240.196C93.7509 237.57 96.527 234.959 99.358 232.364L101.298 234.48C104.111 231.901 106.98 229.337 109.902 226.789L108.015 224.625C110.869 222.136 113.773 219.663 116.728 217.205L118.564 219.412C121.482 216.984 124.45 214.572 127.466 212.173L125.68 209.926C128.674 207.546 131.715 205.181 134.804 202.832L136.542 205.117C139.544 202.833 142.592 200.563 145.683 198.308L143.991 195.988C147.099 193.722 150.25 191.47 153.446 189.234L155.092 191.586C158.181 189.424 161.312 187.275 164.483 185.141L162.88 182.759C166.046 180.629 169.251 178.513 172.497 176.412L174.058 178.822C177.269 176.743 180.519 174.677 183.809 172.627L182.29 170.19C185.501 168.188 188.75 166.2 192.034 164.225L193.513 166.686C196.785 164.719 200.093 162.766 203.436 160.827L201.996 158.343C205.302 156.426 208.643 154.522 212.017 152.633L213.42 155.138C216.722 153.289 220.058 151.454 223.426 149.631L222.059 147.106C225.44 145.278 228.852 143.463 232.297 141.661L233.627 144.206C236.991 142.447 240.386 140.701 243.812 138.969L242.516 136.407C245.913 134.689 249.341 132.984 252.797 131.292L254.059 133.871C257.505 132.185 260.98 130.512 264.484 128.852L263.255 126.257C266.693 124.629 270.159 123.014 273.652 121.412L274.849 124.021C278.303 122.437 281.784 120.866 285.292 119.307L284.126 116.683C287.644 115.12 291.188 113.57 294.759 112.034L295.894 114.671C299.38 113.171 302.892 111.683 306.428 110.208L305.323 107.558C308.841 106.091 312.384 104.636 315.95 103.194L317.027 105.856C320.584 104.417 324.165 102.992 327.77 101.579L326.723 98.9062C330.275 97.5146 333.849 96.1356 337.446 94.7691L338.466 97.4531C342.018 96.1036 345.593 94.7665 349.19 93.4419L348.197 90.7477C351.803 89.4197 355.431 88.1043 359.08 86.8015L360.045 89.5054C363.642 88.2215 367.259 86.9498 370.898 85.6906L369.959 82.9775C373.555 81.7328 377.172 80.5004 380.808 79.2801L381.722 82.0021C385.35 80.7847 388.998 79.5796 392.666 78.3868L391.778 75.6565C395.435 74.467 399.112 73.2899 402.809 72.1251L403.672 74.8634C407.288 73.724 410.922 72.5963 414.575 71.4807L413.737 68.7349C417.398 67.6168 421.077 66.5108 424.774 65.4169L425.589 68.17C429.278 67.0785 432.985 65.9991 436.71 64.932L435.919 62.172C439.577 61.124 443.252 60.0879 446.943 59.0637L447.711 61.8303C451.383 60.8114 455.072 59.8043 458.778 58.8092L458.033 56.0364C461.746 55.0392 465.476 54.0539 469.222 53.0807L469.944 55.8595C473.645 54.8978 477.363 53.9478 481.096 53.0098L480.397 50.2253C484.092 49.2969 487.802 48.3801 491.527 47.4751L492.205 50.265C495.923 49.3617 499.656 48.4702 503.403 47.5905L502.747 44.7954C506.502 43.914 510.272 43.0444 514.057 42.1868L514.691 44.9868C518.395 44.1477 522.112 43.3199 525.843 42.5038L525.229 39.699C528.963 38.8822 532.711 38.0769 536.473 37.2833L537.065 40.0926C540.82 39.3004 544.588 38.5199 548.37 37.7512L547.798 34.9377C551.558 34.1732 555.332 33.4203 559.118 32.6791L559.67 35.4967C563.404 34.7658 567.15 34.0463 570.909 33.3383L570.377 30.5169C574.143 29.8076 577.921 29.1098 581.711 28.4236L582.223 31.2488C586.006 30.5638 589.802 29.8903 593.61 29.2286L593.119 26.3999C596.882 25.7459 600.656 25.1034 604.443 24.4722L604.915 27.3042C608.676 26.6772 612.449 26.0616 616.233 25.4573L615.78 22.6222C619.571 22.0169 623.372 21.4231 627.185 20.8407L627.619 23.6789C631.423 23.0978 635.239 22.5282 639.065 21.9702L638.651 19.1292C642.42 18.5796 646.199 18.0413 649.988 17.5142L650.383 20.3579C654.167 19.8317 657.96 19.3168 661.764 18.8132L661.387 15.967C665.197 15.4626 669.017 14.9696 672.847 14.488L673.205 17.3366C677.013 16.8578 680.831 16.3903 684.659 15.9343L684.319 13.0834C688.106 12.6322 691.903 12.1921 695.709 11.7633L696.03 14.6163C699.83 14.1882 703.639 13.7713 707.458 13.3657L707.154 10.5107C710.979 10.1045 714.812 9.70956 718.655 9.32606L718.94 12.1829C722.752 11.8024 726.574 11.4332 730.403 11.0753L730.136 8.21669C733.938 7.86143 737.748 7.5173 741.566 7.18439L741.815 10.0446C745.628 9.7122 749.448 9.39099 753.278 9.08105L753.046 6.21936C756.881 5.90894 760.724 5.60981 764.575 5.32204L764.789 8.18511C768.606 7.89992 772.431 7.6259 776.263 7.36312L776.067 4.49879C779.879 4.23745 783.698 3.98721 787.525 3.74816L787.704 6.61364C791.525 6.37495 795.354 6.14743 799.19 5.93114L799.029 3.06464C802.87 2.84803 806.72 2.64268 810.576 2.44865L810.72 5.31608C814.542 5.12382 818.37 4.94269 822.206 4.77278L822.079 1.90454C825.898 1.73537 829.723 1.5773 833.556 1.43039L833.666 4.29934C837.492 4.15266 841.326 4.01712 845.166 3.8928L845.073 1.02325C848.918 0.898742 852.771 0.785474 856.629 0.68351L856.705 3.55356C860.531 3.45246 864.363 3.3625 868.202 3.28372L868.143 0.413273C871.966 0.334827 875.794 0.267471 879.629 0.211271L879.671 3.08202C883.5 3.0259 887.336 2.98092 891.177 2.94715L891.151 0.0762081C894.998 0.042388 898.85 0.0197911 902.708 0.00848428L902.717 2.87953C904.643 2.87388 906.571 2.87106 908.5 2.87106C910.429 2.87106 912.357 2.87388 914.283 2.87953L914.292 0.00848482C918.15 0.0197919 922.002 0.0423891 925.849 0.0762094L925.824 2.94715C929.665 2.98093 933.5 3.0259 937.329 3.08202L937.371 0.211273C941.206 0.267473 945.035 0.33483 948.857 0.413276L948.798 3.28373C952.637 3.3625 956.469 3.45247 960.295 3.55357L960.371 0.683513C964.23 0.785478 968.082 0.898747 971.927 1.02325L971.835 3.8928C975.674 4.01712 979.508 4.15266 983.334 4.29935L983.444 1.4304C987.277 1.5773 991.102 1.73537 994.921 1.90454L994.794 4.77279C998.63 4.9427 1002.46 5.12382 1006.28 5.31609L1006.42 2.44866C1010.28 2.64268 1014.13 2.84804 1017.97 3.06465L1017.81 5.93115C1021.65 6.14743 1025.47 6.37496 1029.3 6.61364L1029.47 3.74817C1033.3 3.98722 1037.12 4.23746 1040.93 4.4988L1040.74 7.36313C1044.57 7.62591 1048.39 7.89993 1052.21 8.18513L1052.42 5.32205C1056.28 5.60982 1060.12 5.90895 1063.95 6.21937L1063.72 9.08106C1067.55 9.391 1071.37 9.71221 1075.18 10.0446L1075.43 7.1844C1079.25 7.51731 1083.06 7.86144 1086.86 8.2167L1086.6 11.0753C1090.43 11.4332 1094.25 11.8025 1098.06 12.1829L1098.35 9.32607C1102.19 9.70958 1106.02 10.1045 1109.85 10.5107L1109.54 13.3657C1113.36 13.7713 1117.17 14.1882 1120.97 14.6163L1121.29 11.7633C1125.1 12.1921 1128.89 12.6322 1132.68 13.0834L1132.34 15.9343C1136.17 16.3903 1139.99 16.8578 1143.8 17.3366L1144.15 14.488C1147.98 14.9696 1151.8 15.4626 1155.61 15.967L1155.24 18.8132C1159.04 19.3168 1162.83 19.8317 1166.62 20.3579L1167.01 17.5142C1170.8 18.0413 1174.58 18.5796 1178.35 19.1292L1177.93 21.9702C1181.76 22.5282 1185.58 23.0978 1189.38 23.6789L1189.81 20.8407C1193.63 21.4231 1197.43 22.0169 1201.22 22.6222L1200.77 25.4573C1204.55 26.0616 1208.32 26.6772 1212.09 27.3042L1212.56 24.4722C1216.34 25.1034 1220.12 25.746 1223.88 26.3999L1223.39 29.2286C1227.2 29.8903 1230.99 30.5638 1234.78 31.2488L1235.29 28.4236C1239.08 29.1098 1242.86 29.8076 1246.62 30.5169L1246.09 33.3383C1249.85 34.0463 1253.6 34.7658 1257.33 35.4967L1257.88 32.6791C1261.67 33.4203 1265.44 34.1732 1269.2 34.9376L1268.63 37.7512C1272.41 38.5199 1276.18 39.3004 1279.93 40.0926L1280.53 37.2834C1284.29 38.077 1288.04 38.8822 1291.77 39.699L1291.16 42.5038C1294.89 43.3199 1298.61 44.1477 1302.31 44.9869L1302.94 42.1868C1306.73 43.0444 1310.5 43.914 1314.25 44.7954L1313.6 47.5905C1317.34 48.4702 1321.08 49.3618 1324.8 50.265L1325.47 47.4751C1329.2 48.3801 1332.91 49.2969 1336.6 50.2253L1335.9 53.0098C1339.64 53.9479 1343.35 54.8978 1347.06 55.8595L1347.78 53.0807C1351.52 54.0539 1355.25 55.0392 1358.97 56.0364L1358.22 58.8092C1361.93 59.8044 1365.62 60.8114 1369.29 61.8303L1370.06 59.0637C1373.75 60.0879 1377.42 61.1241 1381.08 62.172L1380.29 64.932C1384.02 65.9991 1387.72 67.0785 1391.41 68.17L1392.23 65.4169C1395.92 66.5108 1399.6 67.6168 1403.26 68.7349L1402.42 71.4807C1406.08 72.5963 1409.71 73.724 1413.33 74.8634L1414.19 72.1251C1417.89 73.2899 1421.56 74.467 1425.22 75.6565L1424.33 78.3868C1428 79.5796 1431.65 80.7847 1435.28 82.002L1436.19 79.2801C1439.83 80.5004 1443.44 81.7328 1447.04 82.9775L1446.1 85.6906C1449.74 86.9498 1453.36 88.2215 1456.95 89.5054L1457.92 86.8015C1461.57 88.1043 1465.2 89.4197 1468.8 90.7477L1467.81 93.4419C1471.41 94.7665 1474.98 96.1036 1478.53 97.4531L1479.55 94.7691C1483.15 96.1356 1486.73 97.5146 1490.28 98.9062L1489.23 101.579C1492.83 102.992 1496.42 104.417 1499.97 105.856L1501.05 103.194C1504.62 104.636 1508.16 106.091 1511.68 107.558L1510.57 110.208C1514.11 111.683 1517.62 113.171 1521.11 114.671L1522.24 112.034C1525.81 113.57 1529.36 115.12 1532.87 116.683L1531.71 119.307C1535.22 120.866 1538.7 122.437 1542.15 124.021L1543.35 121.412C1546.84 123.014 1550.31 124.629 1553.74 126.257L1552.52 128.852C1556.02 130.512 1559.5 132.185 1562.94 133.871L1564.2 131.292C1567.66 132.984 1571.09 134.689 1574.48 136.407L1573.19 138.969C1576.61 140.701 1580.01 142.447 1583.37 144.206L1584.7 141.661C1588.15 143.463 1591.56 145.278 1594.94 147.106L1593.57 149.631C1596.94 151.454 1600.28 153.289 1603.58 155.138L1604.98 152.633C1608.36 154.522 1611.7 156.426 1615 158.343L1613.56 160.827C1616.91 162.766 1620.22 164.719 1623.49 166.686L1624.97 164.225C1628.25 166.2 1631.5 168.188 1634.71 170.19L1633.19 172.627C1636.48 174.677 1639.73 176.743 1642.94 178.822L1644.5 176.412C1647.75 178.513 1650.95 180.629 1654.12 182.759L1652.52 185.141C1655.69 187.275 1658.82 189.424 1661.91 191.586L1663.55 189.234C1666.75 191.47 1669.9 193.722 1673.01 195.989L1671.32 198.308C1674.41 200.563 1677.46 202.833 1680.46 205.117L1682.2 202.832C1685.28 205.181 1688.33 207.546 1691.32 209.926L1689.53 212.173C1692.55 214.572 1695.52 216.984 1698.44 219.412L1700.27 217.205C1703.23 219.663 1706.13 222.136 1708.98 224.625L1707.1 226.789C1710.02 229.337 1712.89 231.901 1715.7 234.48L1717.64 232.364C1720.47 234.959 1723.25 237.57 1725.97 240.196L1723.98 242.261C1726.76 244.951 1729.49 247.655 1732.15 250.375L1734.2 248.365C1736.91 251.121 1739.55 253.893 1742.13 256.681L1740.02 258.631C1742.64 261.454 1745.18 264.293 1747.67 267.146L1749.83 265.261C1752.38 268.185 1754.86 271.124 1757.27 274.079L1755.04 275.894C1757.46 278.861 1759.81 281.843 1762.09 284.841L1764.37 283.103C1766.73 286.196 1769 289.305 1771.21 292.43L1768.86 294.084C1771.06 297.204 1773.18 300.338 1775.23 303.488L1777.63 301.924C1779.75 305.184 1781.79 308.461 1783.74 311.754L1781.27 313.22C1783.22 316.495 1785.08 319.786 1786.86 323.091L1789.39 321.731C1791.23 325.151 1792.98 328.587 1794.64 332.04L1792.05 333.286C1793.71 336.713 1795.27 340.156 1796.74 343.612L1799.38 342.488C1800.9 346.053 1802.32 349.634 1803.64 353.23L1800.95 354.223C1802.27 357.788 1803.48 361.367 1804.61 364.96L1807.35 364.104C1808.5 367.79 1809.55 371.49 1810.5 375.206L1807.72 375.916C1808.65 379.591 1809.49 383.279 1810.23 386.981L1813.04 386.422C1813.79 390.195 1814.43 393.983 1814.97 397.784L1812.13 398.187C1812.66 401.932 1813.09 405.691 1813.41 409.462L1816.27 409.22Z" stroke="white" stroke-width="5.74211" stroke-dasharray="11.48 11.48"/>
<defs>
<filter id="filter0_d_1315_100" x="320.516" y="79" width="1373.97" height="624.453" filterUnits="userSpaceOnUse" color-interpolation-filters="sRGB">
<feFlood flood-opacity="0" result="BackgroundImageFix"/>
<feColorMatrix in="SourceAlpha" type="matrix" values="0 0 0 0 0 0 0 0 0 0 0 0 0 0 0 0 0 0 127 0" result="hardAlpha"/>
<feOffset dy="22.9684"/>
<feGaussianBlur stdDeviation="5.74211"/>
<feComposite in2="hardAlpha" operator="out"/>
<feColorMatrix type="matrix" values="0 0 0 0 0.272508 0 0 0 0 0.908903 0 0 0 0 0.443582 0 0 0 1 0"/>
<feBlend mode="normal" in2="BackgroundImageFix" result="effect1_dropShadow_1315_100"/>
<feBlend mode="normal" in="SourceGraphic" in2="effect1_dropShadow_1315_100" result="shape"/>
</filter>
</defs>
</svg>
